version 1
nodes
  0 "Bone01" -1
  1 "Bone_Lefthand" 0
  2 "Bone_Root" 1
  3 "Bone_Head_Top" 2
  4 "Bone_Mouth00" 2
  5 "Bone_Mouth01" 4
  6 "Bone_Toung" 4
  7 "Bone_Toung01" 6
  8 "Bone_Bol_L" 4
  9 "Bone_Bol_R" 4
  10 "Bone_Bol_Bottom" 4
  11 "Bone_Bol_M" 4
  12 "Bone_Head_L" 2
  13 "Bone_EyeCover_R_B" 2
  14 "Bone_EyeCover_L_B" 2
  15 "Bone_EyeCover_L_Top00" 2
  16 "Bone_EyeCover_L_Top01" 15
  17 "Bone_EyeL" 2
  18 "Bone_EyeR" 2
  19 "Bone_MiGan" 2
  20 "Bone_EyeCover_R_Top00" 2
  21 "Bone_EyeCover_R_Top01" 20
  22 "Bone04" -1
  23 "Bone_Righthand" 22
  24 "Bone_Se_Hand-R" 23
  25 "Bone43" 23
  26 "Bone44" 25
  27 "Bone45" 26
  28 "Bone39" 23
  29 "Bone40" 28
  30 "Bone41" 29
  31 "Bone35" 23
  32 "Bone36" 31
  33 "Bone37" 32
  34 "Bone31" 23
  35 "Bone32" 34
  36 "Bone33" 35
  37 "Bone27" 23
  38 "Bone28" 37
  39 "Bone29" 38
  40 "Bone_Se_Hand-L" 1
  41 "Bone09" 1
  42 "Bone10" 41
  43 "Bone11" 42
  44 "Bone13" 1
  45 "Bone14" 44
  46 "Bone15" 45
  47 "Bone17" 1
  48 "Bone18" 47
  49 "Bone19" 48
  50 "Bone21" 1
  51 "Bone22" 50
  52 "Bone23" 51
  53 "Bone05" 1
  54 "Bone06" 53
  55 "Bone07" 54
end
skeleton
  time 0
    0 12.669060 -4.749023 -10.349878 0.348764 -1.991221 -0.003196
    1 -0.071920 -8.498732 -0.104134 -0.301489 -0.695400 0.031779
    2 0.324310 -3.644291 2.973205 -0.560397 -1.413034 3.287480
    3 -0.088869 0.170559 2.606216 -0.393785 1.196515 1.798619
    4 -0.011142 0.781255 -0.800262 1.757061 -0.017758 -0.007629
    5 0.000000 0.718097 -0.000002 0.132698 -0.004087 0.000479
    6 -0.000001 0.897711 1.580295 0.068088 -0.029879 -0.085813
    7 -0.000000 -0.000000 0.811541 0.569018 -0.134605 0.274998
    8 2.156043 -1.398221 2.021274 -0.482214 0.223274 0.729826
    9 -2.130264 -1.398221 2.021276 2.659375 -0.223280 -0.729833
    10 0.078373 -2.106275 0.868908 -0.176167 0.008544 0.018050
    11 0.072788 -0.729863 3.122958 -1.000949 0.008544 0.018050
    12 1.775118 -0.139594 1.671897 0.513126 0.811034 3.113585
    13 -1.241366 -1.806391 1.056407 1.256939 -0.061300 2.555561
    14 1.239846 -1.806390 1.056407 1.163316 3.080293 0.586032
    15 1.218724 -1.798575 1.272704 -1.340342 0.061300 -2.555561
    16 0.004859 -0.122106 -0.000735 0.073338 0.041702 0.036316
    17 -1.061022 -1.480885 1.175125 0.000000 0.000000 -0.698132
    18 1.061021 -1.480883 1.175125 -0.223871 0.333597 -1.189563
    19 -0.001760 -2.447698 1.417189 0.231764 -0.000000 3.141592
    20 -1.220244 -1.798577 1.272703 -1.487043 -3.080293 -0.586032
    21 -0.004860 0.122106 0.000735 0.010737 0.041702 0.036316
    22 -2.665418 -3.335987 -23.417746 -0.336708 2.931048 0.035565
    23 0.096951 -8.450422 -0.009364 -0.626412 0.144465 0.060716
    24 -0.139400 -0.111699 0.014398 0.285526 -0.040597 1.576232
    25 1.164474 -2.543937 -0.170327 -0.810662 -0.031465 0.153685
    26 0.024034 -1.129039 0.017807 -1.325026 0.000000 -0.000001
    27 0.014896 -0.883992 -0.019847 -1.279095 0.000000 -0.000000
    28 0.447949 -2.798981 -0.200442 -0.771444 0.008111 0.214640
    29 -0.032909 -1.480206 0.004935 -1.362344 0.000000 0.000000
    30 -0.027023 -1.076921 -0.020212 -1.216209 0.000000 -0.000000
    31 -0.249535 -2.846962 -0.174215 -0.842731 0.109110 0.040203
    32 0.043235 -1.683941 0.096015 -1.287122 0.000001 0.000000
    33 0.031729 -1.160831 0.058834 -1.258422 -0.000000 -0.000000
    34 -0.963867 -2.785142 -0.085346 -0.846560 0.272730 -0.030675
    35 0.028477 -1.403065 0.006271 -0.868294 0.000001 0.000000
    36 0.021414 -0.957780 0.020046 -1.214462 0.000000 0.000000
    37 -0.591283 -1.257737 0.232709 -1.221545 -0.292101 -2.052773
    38 1.522835 0.058679 0.016852 -0.181773 -0.500376 0.243387
    39 1.117948 0.048424 -0.005766 -0.000243 -1.002274 0.065422
    40 0.120152 -0.050266 -0.054488 0.287569 3.110905 1.561085
    41 -1.180679 -2.507216 -0.193860 -0.109699 0.013294 -0.477916
    42 -0.024968 -1.123935 0.017595 -0.280540 0.000000 0.000000
    43 -0.020059 -0.890964 0.010094 -0.388002 -0.000000 -0.000000
    44 -0.488518 -2.755600 -0.228259 -0.003429 0.010331 -0.264493
    45 0.039887 -1.479790 0.029853 -0.296130 0.000000 0.000000
    46 0.028784 -1.075732 -0.023109 -0.480773 -0.000000 -0.000000
    47 0.250027 -2.820664 -0.238394 0.000102 -0.002923 -0.024029
    48 -0.049760 -1.680543 0.100480 -0.189008 0.000000 -0.000000
    49 -0.034142 -1.148310 0.084779 -0.661875 0.000000 0.000000
    50 0.957767 -2.746777 -0.090299 0.020172 -0.162276 0.191555
    51 -0.033420 -1.397126 -0.011255 -0.083237 0.000000 0.000001
    52 -0.022361 -0.957433 0.018785 -0.742252 0.000000 0.000000
    53 0.583509 -1.197273 0.185380 0.883659 -0.355101 -0.444069
    54 1.535925 0.010248 0.005008 -0.002964 -0.272229 0.000890
    55 1.100770 0.004527 -0.010675 -0.002796 -0.377916 0.003459
  time 1
    0 14.333174 0.204253 -10.553010 0.175168 -1.986626 0.239549
    1 -0.071920 -8.498732 -0.104134 -0.338843 -0.711614 0.043661
    2 0.324310 -3.644291 2.973205 -0.560397 -1.413034 3.287480
    3 -0.088869 0.170559 2.606216 -0.393785 1.196515 1.798619
    4 -0.011142 0.781255 -0.800262 1.773726 -0.017758 -0.007629
    5 0.000000 0.718097 -0.000002 0.120672 -0.004087 0.000479
    6 -0.000001 0.897711 1.580295 0.056055 -0.029879 -0.085813
    7 -0.000000 -0.000000 0.811541 0.544457 -0.132628 0.281434
    8 2.159949 -1.406034 2.025180 -0.482214 0.223274 0.729826
    9 -2.138077 -1.402127 2.025182 2.659375 -0.223280 -0.729833
    10 0.078373 -2.117994 0.868908 -0.176167 0.008544 0.018050
    11 0.072788 -0.733769 3.130771 -1.000949 0.008544 0.018050
    12 1.775118 -0.139594 1.671897 0.513126 0.811034 3.113585
    13 -1.241366 -1.806391 1.056407 1.245089 -0.061300 2.555561
    14 1.239846 -1.806390 1.056407 1.152471 3.080293 0.586032
    15 1.218724 -1.798575 1.272704 -1.333242 0.061300 -2.555561
    16 0.004859 -0.122106 -0.000735 0.067084 0.041702 0.036316
    17 -1.061022 -1.480885 1.175125 -0.013018 0.000716 -0.697086
    18 1.061021 -1.480883 1.175125 -0.253326 0.329707 -1.184546
    19 -0.001760 -2.447698 1.413283 0.231764 -0.000000 3.141592
    20 -1.220244 -1.798577 1.272703 -1.503919 -3.074396 -0.583347
    21 -0.004860 0.122106 0.000735 0.016612 0.041702 0.036316
    22 -2.665418 -3.335987 -23.417746 -0.336708 2.931048 0.035565
    23 0.096951 -8.450422 -0.009364 -0.626412 0.144465 0.060716
    24 -0.139400 -0.111699 0.014398 0.285526 -0.040597 1.576232
    25 1.164474 -2.543937 -0.170327 -0.810662 -0.031465 0.153685
    26 0.024034 -1.129039 0.017807 -1.325026 0.000000 -0.000001
    27 0.014896 -0.883992 -0.019847 -1.279095 0.000000 -0.000000
    28 0.447949 -2.798981 -0.200442 -0.771444 0.008111 0.214640
    29 -0.032909 -1.480206 0.004935 -1.362344 0.000000 0.000000
    30 -0.027023 -1.076921 -0.020212 -1.216209 0.000000 -0.000000
    31 -0.249535 -2.846962 -0.174215 -0.842731 0.109110 0.040203
    32 0.043235 -1.683941 0.096015 -1.287122 0.000001 0.000000
    33 0.031729 -1.160831 0.058834 -1.258422 -0.000000 -0.000000
    34 -0.963867 -2.785142 -0.085346 -0.846560 0.272730 -0.030675
    35 0.028477 -1.403065 0.006271 -0.868294 0.000001 0.000000
    36 0.021414 -0.957780 0.020046 -1.214462 0.000000 0.000000
    37 -0.591283 -1.257737 0.232709 -1.221545 -0.292101 -2.052773
    38 1.522835 0.058679 0.016852 -0.181773 -0.500376 0.243387
    39 1.117948 0.048424 -0.005766 -0.000243 -1.002274 0.065422
    40 0.120152 -0.050266 -0.054488 0.279057 3.116633 1.562135
    41 -1.180679 -2.507216 -0.193860 -0.109699 0.013294 -0.477916
    42 -0.024968 -1.123935 0.017595 -0.280540 0.000000 0.000000
    43 -0.020059 -0.890964 0.010094 -0.388002 -0.000000 -0.000000
    44 -0.488518 -2.755600 -0.228259 -0.003429 0.010331 -0.264493
    45 0.039887 -1.479790 0.029853 -0.296130 0.000000 0.000000
    46 0.028784 -1.075732 -0.023109 -0.480773 -0.000000 -0.000000
    47 0.250027 -2.820664 -0.238394 0.000102 -0.002923 -0.024029
    48 -0.049760 -1.680543 0.100480 -0.189008 0.000000 -0.000000
    49 -0.034142 -1.148310 0.084779 -0.661875 0.000000 0.000000
    50 0.957767 -2.746777 -0.090299 0.020172 -0.162276 0.191555
    51 -0.033420 -1.397126 -0.011255 -0.083237 0.000000 0.000001
    52 -0.022361 -0.957433 0.018785 -0.742252 0.000000 0.000000
    53 0.583509 -1.197273 0.185380 0.883659 -0.355101 -0.444069
    54 1.535925 0.010248 0.005008 -0.002964 -0.272229 0.000890
    55 1.100770 0.004527 -0.010675 -0.002796 -0.377916 0.003459
  time 2
    0 16.438705 6.095058 -10.881145 -0.118325 -1.976600 -5.651897
    1 -0.071920 -8.498732 -0.104134 -0.401114 -0.738626 0.063466
    2 0.324310 -3.644291 2.973205 -0.560397 -1.413034 3.287480
    3 -0.088869 0.170559 2.606216 -0.393785 1.196515 1.798619
    4 -0.011142 0.781255 -0.800262 1.818977 -0.017758 -0.007629
    5 0.000000 0.718097 -0.000002 0.087979 -0.004087 0.000479
    6 -0.000001 0.897711 1.580295 0.023385 -0.029879 -0.085813
    7 -0.000000 -0.000000 0.811541 0.477710 -0.127270 0.298931
    8 2.171669 -1.417753 2.032993 -0.482214 0.223274 0.729826
    9 -2.149796 -1.413846 2.032995 2.659375 -0.223280 -0.729833
    10 0.078373 -2.133620 0.872814 -0.176167 0.008544 0.018050
    11 0.072788 -0.741582 3.146396 -1.000949 0.008544 0.018050
    12 1.775118 -0.139594 1.671897 0.513126 0.811034 3.113585
    13 -1.241366 -1.806391 1.056407 1.212755 -0.061300 2.555561
    14 1.239846 -1.806390 1.056407 1.123033 3.080293 0.586032
    15 1.218724 -1.798575 1.272704 -1.313896 0.061300 -2.555561
    16 0.004859 -0.122106 -0.000735 0.050109 0.041702 0.036316
    17 -1.061022 -1.480885 1.175125 -0.024589 0.002699 -0.694236
    18 1.061021 -1.480883 1.175125 -0.333286 0.319110 -1.170816
    19 -0.001760 -2.447698 1.393751 0.231764 -0.000000 3.141592
    20 -1.220244 -1.798577 1.272703 -1.549979 -3.058365 -0.575869
    21 -0.004860 0.122106 0.000735 0.032552 0.041702 0.036316
    22 -2.665418 -3.335987 -23.417746 -0.336708 2.931048 0.035565
    23 0.096951 -8.450422 -0.009364 -0.626412 0.144465 0.060716
    24 -0.139400 -0.111699 0.014398 0.285526 -0.040597 1.576232
    25 1.164474 -2.543937 -0.170327 -0.810662 -0.031465 0.153685
    26 0.024034 -1.129039 0.017807 -1.325026 0.000000 -0.000001
    27 0.014896 -0.883992 -0.019847 -1.279095 0.000000 -0.000000
    28 0.447949 -2.798981 -0.200442 -0.771444 0.008111 0.214640
    29 -0.032909 -1.480206 0.004935 -1.362344 0.000000 0.000000
    30 -0.027023 -1.076921 -0.020212 -1.216209 0.000000 -0.000000
    31 -0.249535 -2.846962 -0.174215 -0.842731 0.109110 0.040203
    32 0.043235 -1.683941 0.096015 -1.287122 0.000001 0.000000
    33 0.031729 -1.160831 0.058834 -1.258422 -0.000000 -0.000000
    34 -0.963867 -2.785142 -0.085346 -0.846560 0.272730 -0.030675
    35 0.028477 -1.403065 0.006271 -0.868294 0.000001 0.000000
    36 0.021414 -0.957780 0.020046 -1.214462 0.000000 0.000000
    37 -0.591283 -1.257737 0.232709 -1.221545 -0.292101 -2.052773
    38 1.522835 0.058679 0.016852 -0.181773 -0.500376 0.243387
    39 1.117948 0.048424 -0.005766 -0.000243 -1.002274 0.065422
    40 0.120152 -0.050266 -0.054488 0.255648 3.132481 1.565189
    41 -1.180679 -2.507216 -0.193860 -0.109699 0.013294 -0.477916
    42 -0.024968 -1.123935 0.017595 -0.280540 0.000000 0.000000
    43 -0.020059 -0.890964 0.010094 -0.388002 -0.000000 -0.000000
    44 -0.488518 -2.755600 -0.228259 -0.003429 0.010331 -0.264493
    45 0.039887 -1.479790 0.029853 -0.296130 0.000000 0.000000
    46 0.028784 -1.075732 -0.023109 -0.480773 -0.000000 -0.000000
    47 0.250027 -2.820664 -0.238394 0.000102 -0.002923 -0.024029
    48 -0.049760 -1.680543 0.100480 -0.189008 0.000000 -0.000000
    49 -0.034142 -1.148310 0.084779 -0.661875 0.000000 0.000000
    50 0.957767 -2.746777 -0.090299 0.020172 -0.162276 0.191555
    51 -0.033420 -1.397126 -0.011255 -0.083237 0.000000 0.000001
    52 -0.022361 -0.957433 0.018785 -0.742252 0.000000 0.000000
    53 0.583509 -1.197273 0.185380 0.883659 -0.355101 -0.444069
    54 1.535925 0.010248 0.005008 -0.002964 -0.272229 0.000890
    55 1.100770 0.004527 -0.010675 -0.002796 -0.377916 0.003459
  time 3
    0 17.891876 11.013177 -10.943647 -0.394700 -1.966533 -5.287643
    1 -0.071920 -8.498732 -0.104134 -0.413590 -0.744042 0.067427
    2 0.324310 -3.644291 2.973205 -0.560397 -1.413034 3.287480
    3 -0.088869 0.170559 2.606216 -0.393785 1.196515 1.798619
    4 -0.011142 0.781255 -0.800262 1.885663 -0.017758 -0.007629
    5 0.000000 0.718097 -0.000002 0.039827 -0.004087 0.000479
    6 -0.000001 0.897711 1.580295 -0.024769 -0.029879 -0.085813
    7 -0.000000 -0.000000 0.811541 0.379385 -0.119361 0.324698
    8 2.187294 -1.429472 2.044712 -0.482214 0.223274 0.729826
    9 -2.161515 -1.425566 2.044714 2.659375 -0.223280 -0.729833
    10 0.078373 -2.157058 0.876721 -0.176167 0.008544 0.018050
    11 0.072788 -0.753301 3.162022 -1.000949 0.008544 0.018050
    12 1.775118 -0.139594 1.671897 0.513126 0.811034 3.113585
    13 -1.241366 -1.806391 1.056407 1.165185 -0.061300 2.555561
    14 1.239846 -1.806390 1.056407 1.079652 3.080293 0.586032
    15 1.218724 -1.798575 1.272704 -1.285408 0.061300 -2.555561
    16 0.004859 -0.122106 -0.000735 0.025092 0.041702 0.036316
    17 -1.061022 -1.480885 1.175125 -0.034747 0.005602 -0.690032
    18 1.061021 -1.480883 1.175125 -0.451108 0.303552 -1.150536
    19 -0.001760 -2.447698 1.370313 0.231764 -0.000000 3.141592
    20 -1.220244 -1.798577 1.272703 1.523274 -0.106907 -3.706340
    21 -0.004860 0.122106 0.000735 0.056053 0.041702 0.036316
    22 -2.665418 -3.335987 -23.417746 -0.336708 2.931048 0.035565
    23 0.096951 -8.450422 -0.009364 -0.626412 0.144465 0.060716
    24 -0.139400 -0.111699 0.014398 0.285526 -0.040597 1.576232
    25 1.164474 -2.543937 -0.170327 -0.810662 -0.031465 0.153685
    26 0.024034 -1.129039 0.017807 -1.325026 0.000000 -0.000001
    27 0.014896 -0.883992 -0.019847 -1.279095 0.000000 -0.000000
    28 0.447949 -2.798981 -0.200442 -0.771444 0.008111 0.214640
    29 -0.032909 -1.480206 0.004935 -1.362344 0.000000 0.000000
    30 -0.027023 -1.076921 -0.020212 -1.216209 0.000000 -0.000000
    31 -0.249535 -2.846962 -0.174215 -0.842731 0.109110 0.040203
    32 0.043235 -1.683941 0.096015 -1.287122 0.000001 0.000000
    33 0.031729 -1.160831 0.058834 -1.258422 -0.000000 -0.000000
    34 -0.963867 -2.785142 -0.085346 -0.846560 0.272730 -0.030675
    35 0.028477 -1.403065 0.006271 -0.868294 0.000001 0.000000
    36 0.021414 -0.957780 0.020046 -1.214462 0.000000 0.000000
    37 -0.591283 -1.257737 0.232709 -1.221545 -0.292101 -2.052773
    38 1.522835 0.058679 0.016852 -0.181773 -0.500376 0.243387
    39 1.117948 0.048424 -0.005766 -0.000243 -1.002274 0.065422
    40 0.120152 -0.050266 -0.054488 0.220766 3.156253 1.569770
    41 -1.180679 -2.507216 -0.193860 -0.109699 0.013294 -0.477916
    42 -0.024968 -1.123935 0.017595 -0.280540 0.000000 0.000000
    43 -0.020059 -0.890964 0.010094 -0.388002 -0.000000 -0.000000
    44 -0.488518 -2.755600 -0.228259 -0.003429 0.010331 -0.264493
    45 0.039887 -1.479790 0.029853 -0.296130 0.000000 0.000000
    46 0.028784 -1.075732 -0.023109 -0.480773 -0.000000 -0.000000
    47 0.250027 -2.820664 -0.238394 0.000102 -0.002923 -0.024029
    48 -0.049760 -1.680543 0.100480 -0.189008 0.000000 -0.000000
    49 -0.034142 -1.148310 0.084779 -0.661875 0.000000 0.000000
    50 0.957767 -2.746777 -0.090299 0.020172 -0.162276 0.191555
    51 -0.033420 -1.397126 -0.011255 -0.083237 0.000000 0.000001
    52 -0.022361 -0.957433 0.018785 -0.742252 0.000000 0.000000
    53 0.583509 -1.197273 0.185380 0.883659 -0.355101 -0.444069
    54 1.535925 0.010248 0.005008 -0.002964 -0.272229 0.000890
    55 1.100770 0.004527 -0.010675 -0.002796 -0.377916 0.003459
  time 4
    0 17.591085 13.036676 -10.349878 -0.517323 -1.961979 -5.127099
    1 -0.071920 -8.498732 -0.104134 -0.301489 -0.695400 0.031779
    2 0.324310 -3.644291 2.973205 -0.560397 -1.413034 3.287480
    3 -0.088869 0.170559 2.606216 -0.393785 1.196515 1.798619
    4 -0.011142 0.781255 -0.800262 1.966578 -0.017758 -0.007629
    5 0.000000 0.718097 -0.000002 -0.018621 -0.004087 0.000479
    6 -0.000001 0.897711 1.580295 -0.083242 -0.029879 -0.085813
    7 -0.000000 -0.000000 0.811541 0.260008 -0.109761 0.356002
    8 2.202919 -1.445097 2.056431 -0.482214 0.223274 0.729826
    9 -2.181047 -1.441191 2.052527 2.659375 -0.223280 -0.729833
    10 0.078373 -2.180496 0.880627 -0.176167 0.008544 0.018050
    11 0.072788 -0.768927 3.185460 -1.000949 0.008544 0.018050
    12 1.775118 -0.139594 1.671897 0.513126 0.811034 3.113585
    13 -1.241366 -1.806391 1.056407 1.107373 -0.061300 2.555561
    14 1.239846 -1.806390 1.056407 1.026953 3.080293 0.586032
    15 1.218724 -1.798575 1.272704 -1.250885 0.061300 -2.555561
    16 0.004859 -0.122106 -0.000735 -0.005284 0.041702 0.036316
    17 -1.061022 -1.480885 1.175125 -0.043491 0.009145 -0.684926
    18 1.061021 -1.480883 1.175125 -0.594150 0.284716 -1.125780
    19 -0.001760 -2.447698 1.335155 0.231764 -0.000000 3.141592
    20 -1.220244 -1.798577 1.272703 1.439545 -0.135561 -3.692918
    21 -0.004860 0.122106 0.000735 0.084596 0.041702 0.036316
    22 -2.665418 -3.335987 -23.417746 -0.336708 2.931048 0.035565
    23 0.096951 -8.450422 -0.009364 -0.626412 0.144465 0.060716
    24 -0.139400 -0.111699 0.014398 0.285526 -0.040597 1.576232
    25 1.164474 -2.543937 -0.170327 -0.810662 -0.031465 0.153685
    26 0.024034 -1.129039 0.017807 -1.325026 0.000000 -0.000001
    27 0.014896 -0.883992 -0.019847 -1.279095 0.000000 -0.000000
    28 0.447949 -2.798981 -0.200442 -0.771444 0.008111 0.214640
    29 -0.032909 -1.480206 0.004935 -1.362344 0.000000 0.000000
    30 -0.027023 -1.076921 -0.020212 -1.216209 0.000000 -0.000000
    31 -0.249535 -2.846962 -0.174215 -0.842731 0.109110 0.040203
    32 0.043235 -1.683941 0.096015 -1.287122 0.000001 0.000000
    33 0.031729 -1.160831 0.058834 -1.258422 -0.000000 -0.000000
    34 -0.963867 -2.785142 -0.085346 -0.846560 0.272730 -0.030675
    35 0.028477 -1.403065 0.006271 -0.868294 0.000001 0.000000
    36 0.021414 -0.957780 0.020046 -1.214462 0.000000 0.000000
    37 -0.591283 -1.257737 0.232709 -1.221545 -0.292101 -2.052773
    38 1.522835 0.058679 0.016852 -0.181773 -0.500376 0.243387
    39 1.117948 0.048424 -0.005766 -0.000243 -1.002274 0.065422
    40 0.120152 -0.050266 -0.050582 3.319227 6.239177 -1.566144
    41 -1.180679 -2.507216 -0.193860 -0.109699 0.013294 -0.477916
    42 -0.024968 -1.123935 0.017595 -0.280540 0.000000 0.000000
    43 -0.020059 -0.890964 0.010094 -0.388002 -0.000000 -0.000000
    44 -0.488518 -2.755600 -0.228259 -0.003429 0.010331 -0.264493
    45 0.039887 -1.479790 0.029853 -0.296130 0.000000 0.000000
    46 0.028784 -1.075732 -0.023109 -0.480773 -0.000000 -0.000000
    47 0.250027 -2.820664 -0.238394 0.000102 -0.002923 -0.024029
    48 -0.049760 -1.680543 0.100480 -0.189008 0.000000 -0.000000
    49 -0.034142 -1.148310 0.084779 -0.661875 0.000000 0.000000
    50 0.957767 -2.746777 -0.090299 0.020172 -0.162276 0.191555
    51 -0.033420 -1.397126 -0.011255 -0.083237 0.000000 0.000001
    52 -0.022361 -0.957433 0.018785 -0.742252 0.000000 0.000000
    53 0.583509 -1.197273 0.185380 0.883659 -0.355101 -0.444069
    54 1.535925 0.010248 0.005008 -0.002964 -0.272229 0.000890
    55 1.100770 0.004527 -0.010675 -0.002796 -0.377916 0.003459
  time 5
    0 14.563649 10.798326 -8.662327 0.021112 -2.082123 -5.619660
    1 -0.071920 -8.498732 -0.104134 0.023743 -0.554961 -0.070887
    2 0.324310 -3.644291 2.973205 -0.560397 -1.413034 3.287480
    3 -0.088869 0.170559 2.606216 -0.393785 1.196515 1.798619
    4 -0.011142 0.781255 -0.800262 2.054697 -0.017758 -0.007629
    5 0.000000 0.718097 -0.000002 -0.082231 -0.004087 0.000479
    6 -0.000001 0.897711 1.580295 -0.146868 -0.029879 -0.085813
    7 -0.000000 -0.000000 0.811541 0.130104 -0.099322 0.390074
    8 2.222451 -1.460723 2.068151 -0.482214 0.223274 0.729826
    9 -2.196672 -1.456817 2.064246 2.659375 -0.223280 -0.729833
    10 0.078373 -2.203934 0.884533 -0.176167 0.008544 0.018050
    11 0.072788 -0.780646 3.204992 -1.000949 0.008544 0.018050
    12 1.775118 -0.139594 1.671897 0.513126 0.811034 3.113585
    13 -1.241366 -1.806391 1.056407 1.044482 -0.061300 2.555561
    14 1.239846 -1.806390 1.056407 0.969627 3.080293 0.586032
    15 1.218724 -1.798575 1.272704 -1.213168 0.061300 -2.555561
    16 0.004859 -0.122106 -0.000735 -0.038369 0.041702 0.036316
    17 -1.061022 -1.480885 1.175125 -0.050855 0.012982 -0.679390
    18 1.061021 -1.480883 1.175125 -0.749802 0.264288 -1.098740
    19 -0.001760 -2.447698 1.299998 0.231764 -0.000000 3.141592
    20 -1.220244 -1.798577 1.272703 1.347518 -0.166703 -3.678057
    21 -0.004860 0.122106 0.000735 0.115660 0.041702 0.036316
    22 -2.665418 -3.335987 -23.417746 -0.336708 2.931048 0.035565
    23 0.096951 -8.450422 -0.009364 -0.626412 0.144465 0.060716
    24 -0.139400 -0.111699 0.014398 0.285526 -0.040597 1.576232
    25 1.164474 -2.543937 -0.170327 -0.810662 -0.031465 0.153685
    26 0.024034 -1.129039 0.017807 -1.325026 0.000000 -0.000001
    27 0.014896 -0.883992 -0.019847 -1.279095 0.000000 -0.000000
    28 0.447949 -2.798981 -0.200442 -0.771444 0.008111 0.214640
    29 -0.032909 -1.480206 0.004935 -1.362344 0.000000 0.000000
    30 -0.027023 -1.076921 -0.020212 -1.216209 0.000000 -0.000000
    31 -0.249535 -2.846962 -0.174215 -0.842731 0.109110 0.040203
    32 0.043235 -1.683941 0.096015 -1.287122 0.000001 0.000000
    33 0.031729 -1.160831 0.058834 -1.258422 -0.000000 -0.000000
    34 -0.963867 -2.785142 -0.085346 -0.846560 0.272730 -0.030675
    35 0.028477 -1.403065 0.006271 -0.868294 0.000001 0.000000
    36 0.021414 -0.957780 0.020046 -1.214462 0.000000 0.000000
    37 -0.591283 -1.257737 0.232709 -1.221545 -0.292101 -2.052773
    38 1.522835 0.058679 0.016852 -0.181773 -0.500376 0.243387
    39 1.117948 0.048424 -0.005766 -0.000243 -1.002274 0.065422
    40 0.120152 -0.050266 -0.046675 3.271669 6.206431 -1.559845
    41 -1.180679 -2.507216 -0.193860 -0.109699 0.013294 -0.477916
    42 -0.024968 -1.123935 0.017595 -0.280540 0.000000 0.000000
    43 -0.020059 -0.890964 0.010094 -0.388002 -0.000000 -0.000000
    44 -0.488518 -2.755600 -0.228259 -0.003429 0.010331 -0.264493
    45 0.039887 -1.479790 0.029853 -0.296130 0.000000 0.000000
    46 0.028784 -1.075732 -0.023109 -0.480773 -0.000000 -0.000000
    47 0.250027 -2.820664 -0.238394 0.000102 -0.002923 -0.024029
    48 -0.049760 -1.680543 0.100480 -0.189008 0.000000 -0.000000
    49 -0.034142 -1.148310 0.084779 -0.661875 0.000000 0.000000
    50 0.957767 -2.746777 -0.090299 0.020172 -0.162276 0.191555
    51 -0.033420 -1.397126 -0.011255 -0.083237 0.000000 0.000001
    52 -0.022361 -0.957433 0.018785 -0.742252 0.000000 0.000000
    53 0.583509 -1.197273 0.185380 0.883659 -0.355101 -0.444069
    54 1.535925 0.010248 0.005008 -0.002964 -0.272229 0.000890
    55 1.100770 0.004527 -0.010675 -0.002796 -0.377916 0.003459
  time 6
    0 10.145546 6.306002 -6.455229 1.079352 -2.317439 -0.326763
    1 -0.071920 -8.498732 -0.104134 0.448674 -0.371297 -0.205255
    2 0.324310 -3.644291 2.973205 -0.560397 -1.413034 3.287480
    3 -0.088869 0.170559 2.606216 -0.393785 1.196515 1.798619
    4 -0.011142 0.781255 -0.800262 2.142791 -0.017758 -0.007629
    5 0.000000 0.718097 -0.000002 -0.145864 -0.004087 0.000479
    6 -0.000001 0.897711 1.580295 -0.210482 -0.029879 -0.085813
    7 -0.000000 -0.000000 0.811541 0.000200 -0.088896 0.424134
    8 2.238077 -1.472442 2.075963 -0.482214 0.223274 0.729826
    9 -2.212298 -1.472442 2.075965 2.659375 -0.223280 -0.729833
    10 0.078373 -2.231279 0.888440 -0.176167 0.008544 0.018050
    11 0.072788 -0.796271 3.228430 -1.000949 0.008544 0.018050
    12 1.775118 -0.139594 1.671897 0.513126 0.811034 3.113585
    13 -1.241366 -1.806391 1.056407 0.981591 -0.061300 2.555561
    14 1.239846 -1.806390 1.056407 0.912280 3.080293 0.586032
    15 1.218724 -1.798575 1.272704 -1.175539 0.061300 -2.555561
    16 0.004859 -0.122106 -0.000735 -0.071426 0.041702 0.036316
    17 -1.061022 -1.480885 1.175125 -0.056838 0.016832 -0.673833
    18 1.061021 -1.480883 1.175125 -0.905390 0.243951 -1.071580
    19 -0.001760 -2.443792 1.268747 0.231764 -0.000000 3.141592
    20 -1.220244 -1.798577 1.272703 1.254466 -0.197752 -3.663005
    21 -0.004860 0.122106 0.000735 0.146724 0.041702 0.036316
    22 -2.665418 -3.335987 -23.417746 -0.336708 2.931048 0.035565
    23 0.096951 -8.450422 -0.009364 -0.626412 0.144465 0.060716
    24 -0.139400 -0.111699 0.014398 0.285526 -0.040597 1.576232
    25 1.164474 -2.543937 -0.170327 -0.810662 -0.031465 0.153685
    26 0.024034 -1.129039 0.017807 -1.325026 0.000000 -0.000001
    27 0.014896 -0.883992 -0.019847 -1.279095 0.000000 -0.000000
    28 0.447949 -2.798981 -0.200442 -0.771444 0.008111 0.214640
    29 -0.032909 -1.480206 0.004935 -1.362344 0.000000 0.000000
    30 -0.027023 -1.076921 -0.020212 -1.216209 0.000000 -0.000000
    31 -0.249535 -2.846962 -0.174215 -0.842731 0.109110 0.040203
    32 0.043235 -1.683941 0.096015 -1.287122 0.000001 0.000000
    33 0.031729 -1.160831 0.058834 -1.258422 -0.000000 -0.000000
    34 -0.963867 -2.785142 -0.085346 -0.846560 0.272730 -0.030675
    35 0.028477 -1.403065 0.006271 -0.868294 0.000001 0.000000
    36 0.021414 -0.957780 0.020046 -1.214462 0.000000 0.000000
    37 -0.591283 -1.257737 0.232709 -1.221545 -0.292101 -2.052773
    38 1.522835 0.058679 0.016852 -0.181773 -0.500376 0.243387
    39 1.117948 0.048424 -0.005766 -0.000243 -1.002274 0.065422
    40 0.120152 -0.050266 -0.038863 3.222631 6.172635 -1.553547
    41 -1.180679 -2.507216 -0.193860 -0.109699 0.013294 -0.477916
    42 -0.024968 -1.123935 0.017595 -0.280540 0.000000 0.000000
    43 -0.020059 -0.890964 0.010094 -0.388002 -0.000000 -0.000000
    44 -0.488518 -2.755600 -0.228259 -0.003429 0.010331 -0.264493
    45 0.039887 -1.479790 0.029853 -0.296130 0.000000 0.000000
    46 0.028784 -1.075732 -0.023109 -0.480773 -0.000000 -0.000000
    47 0.250027 -2.820664 -0.238394 0.000102 -0.002923 -0.024029
    48 -0.049760 -1.680543 0.100480 -0.189008 0.000000 -0.000000
    49 -0.034142 -1.148310 0.084779 -0.661875 0.000000 0.000000
    50 0.957767 -2.746777 -0.090299 0.020172 -0.162276 0.191555
    51 -0.033420 -1.397126 -0.011255 -0.083237 0.000000 0.000001
    52 -0.022361 -0.957433 0.018785 -0.742252 0.000000 0.000000
    53 0.583509 -1.197273 0.185380 0.883659 -0.355101 -0.444069
    54 1.535925 0.010248 0.005008 -0.002964 -0.272229 0.000890
    55 1.100770 0.004527 -0.010675 -0.002796 -0.377916 0.003459
  time 7
    0 6.739192 2.700423 -4.834085 -1.319335 -0.661702 -4.224729
    1 -0.071920 -8.498732 -0.104134 0.744561 -0.241411 -0.300958
    2 0.324310 -3.644291 2.973205 -0.560397 -1.413034 3.287480
    3 -0.088869 0.170559 2.606216 -0.393785 1.196515 1.798619
    4 -0.011142 0.781255 -0.800262 2.223757 -0.017758 -0.007629
    5 0.000000 0.718097 -0.000002 -0.204337 -0.004087 0.000479
    6 -0.000001 0.897711 1.580295 -0.268955 -0.029879 -0.085813
    7 -0.000000 -0.000000 0.811541 -0.119124 -0.079320 0.455450
    8 2.253702 -1.484161 2.087682 -0.482214 0.223274 0.729826
    9 -2.227923 -1.484161 2.087684 2.659375 -0.223280 -0.729833
    10 0.078373 -2.250811 0.892346 -0.176167 0.008544 0.018050
    11 0.072788 -0.807990 3.247962 -1.000949 0.008544 0.018050
    12 1.775118 -0.139594 1.671897 0.513126 0.811034 3.113585
    13 -1.241366 -1.806391 1.056407 0.923779 -0.061300 2.555561
    14 1.239846 -1.806390 1.056407 0.859602 3.080293 0.586032
    15 1.218724 -1.798575 1.272704 -1.140928 0.061300 -2.555561
    16 0.004859 -0.122106 -0.000735 -0.101803 0.041702 0.036316
    17 -1.061022 -1.480885 1.175125 -0.061457 0.020362 -0.668727
    18 1.061021 -1.480883 1.175125 -1.048304 0.225330 -1.046524
    19 -0.001760 -2.443792 1.233590 0.231764 -0.000000 3.141592
    20 -1.220244 -1.798577 1.272703 1.168033 -0.226130 -3.649008
    21 -0.004860 0.122106 0.000735 0.175248 0.041702 0.036316
    22 -2.665418 -3.335987 -23.417746 -0.336708 2.931048 0.035565
    23 0.096951 -8.450422 -0.009364 -0.626412 0.144465 0.060716
    24 -0.139400 -0.111699 0.014398 0.285526 -0.040597 1.576232
    25 1.164474 -2.543937 -0.170327 -0.810662 -0.031465 0.153685
    26 0.024034 -1.129039 0.017807 -1.325026 0.000000 -0.000001
    27 0.014896 -0.883992 -0.019847 -1.279095 0.000000 -0.000000
    28 0.447949 -2.798981 -0.200442 -0.771444 0.008111 0.214640
    29 -0.032909 -1.480206 0.004935 -1.362344 0.000000 0.000000
    30 -0.027023 -1.076921 -0.020212 -1.216209 0.000000 -0.000000
    31 -0.249535 -2.846962 -0.174215 -0.842731 0.109110 0.040203
    32 0.043235 -1.683941 0.096015 -1.287122 0.000001 0.000000
    33 0.031729 -1.160831 0.058834 -1.258422 -0.000000 -0.000000
    34 -0.963867 -2.785142 -0.085346 -0.846560 0.272730 -0.030675
    35 0.028477 -1.403065 0.006271 -0.868294 0.000001 0.000000
    36 0.021414 -0.957780 0.020046 -1.214462 0.000000 0.000000
    37 -0.591283 -1.257737 0.232709 -1.221545 -0.292101 -2.052773
    38 1.522835 0.058679 0.016852 -0.181773 -0.500376 0.243387
    39 1.117948 0.048424 -0.005766 -0.000243 -1.002274 0.065422
    40 0.120152 -0.046360 -0.034956 3.175444 6.139984 -1.547439
    41 -1.180679 -2.507216 -0.193860 -0.109699 0.013294 -0.477916
    42 -0.024968 -1.123935 0.017595 -0.280540 0.000000 0.000000
    43 -0.020059 -0.890964 0.010094 -0.388002 -0.000000 -0.000000
    44 -0.488518 -2.755600 -0.228259 -0.003429 0.010331 -0.264493
    45 0.039887 -1.479790 0.029853 -0.296130 0.000000 0.000000
    46 0.028784 -1.075732 -0.023109 -0.480773 -0.000000 -0.000000
    47 0.250027 -2.820664 -0.238394 0.000102 -0.002923 -0.024029
    48 -0.049760 -1.680543 0.100480 -0.189008 0.000000 -0.000000
    49 -0.034142 -1.148310 0.084779 -0.661875 0.000000 0.000000
    50 0.957767 -2.746777 -0.090299 0.020172 -0.162276 0.191555
    51 -0.033420 -1.397126 -0.011255 -0.083237 0.000000 0.000001
    52 -0.022361 -0.957433 0.018785 -0.742252 0.000000 0.000000
    53 0.583509 -1.197273 0.185380 0.883659 -0.355101 -0.444069
    54 1.535925 0.010248 0.005008 -0.002964 -0.272229 0.000890
    55 1.100770 0.004527 -0.010675 -0.002796 -0.377916 0.003459
  time 8
    0 5.360243 1.255066 -4.318445 -1.257379 -0.660825 -4.456360
    1 -0.071920 -8.498732 -0.104134 0.829422 -0.222437 -0.316985
    2 0.324310 -3.644291 2.973205 -0.560397 -1.413034 3.287480
    3 -0.088869 0.170559 2.606216 -0.393785 1.196515 1.798619
    4 -0.011142 0.781255 -0.800262 2.290442 -0.017758 -0.007629
    5 0.000000 0.718097 -0.000002 -0.252489 -0.004087 0.000479
    6 -0.000001 0.897711 1.580295 -0.317097 -0.029879 -0.085813
    7 -0.000000 -0.000000 0.811541 -0.217396 -0.071446 0.481241
    8 2.265421 -1.495880 2.095495 -0.482214 0.223274 0.729826
    9 -2.239642 -1.495880 2.095497 2.659375 -0.223280 -0.729833
    10 0.078373 -2.270343 0.896253 -0.176167 0.008544 0.018050
    11 0.072788 -0.819709 3.259681 -1.000949 0.008544 0.018050
    12 1.775118 -0.139594 1.671897 0.513126 0.811034 3.113585
    13 -1.241366 -1.806391 1.056407 0.876209 -0.061300 2.555561
    14 1.239846 -1.806390 1.056407 0.816199 3.080293 0.586032
    15 1.218724 -1.798575 1.272704 -1.112441 0.061300 -2.555561
    16 0.004859 -0.122106 -0.000735 -0.126819 0.041702 0.036316
    17 -1.061022 -1.480885 1.175125 -0.064744 0.023278 -0.664523
    18 1.061021 -1.480883 1.175125 -1.165997 0.210047 -1.025793
    19 -0.001760 -2.443792 1.210151 0.231764 -0.000000 3.141592
    20 -1.220244 -1.798577 1.272703 1.096239 -0.249440 -3.637215
    21 -0.004860 0.122106 0.000735 0.198769 0.041702 0.036316
    22 -2.665418 -3.335987 -23.417746 -0.336708 2.931048 0.035565
    23 0.096951 -8.450422 -0.009364 -0.626412 0.144465 0.060716
    24 -0.139400 -0.111699 0.014398 0.285526 -0.040597 1.576232
    25 1.164474 -2.543937 -0.170327 -0.810662 -0.031465 0.153685
    26 0.024034 -1.129039 0.017807 -1.325026 0.000000 -0.000001
    27 0.014896 -0.883992 -0.019847 -1.279095 0.000000 -0.000000
    28 0.447949 -2.798981 -0.200442 -0.771444 0.008111 0.214640
    29 -0.032909 -1.480206 0.004935 -1.362344 0.000000 0.000000
    30 -0.027023 -1.076921 -0.020212 -1.216209 0.000000 -0.000000
    31 -0.249535 -2.846962 -0.174215 -0.842731 0.109110 0.040203
    32 0.043235 -1.683941 0.096015 -1.287122 0.000001 0.000000
    33 0.031729 -1.160831 0.058834 -1.258422 -0.000000 -0.000000
    34 -0.963867 -2.785142 -0.085346 -0.846560 0.272730 -0.030675
    35 0.028477 -1.403065 0.006271 -0.868294 0.000001 0.000000
    36 0.021414 -0.957780 0.020046 -1.214462 0.000000 0.000000
    37 -0.591283 -1.257737 0.232709 -1.221545 -0.292101 -2.052773
    38 1.522835 0.058679 0.016852 -0.181773 -0.500376 0.243387
    39 1.117948 0.048424 -0.005766 -0.000243 -1.002274 0.065422
    40 0.120152 -0.046360 -0.027143 3.133438 6.110674 -1.541999
    41 -1.180679 -2.507216 -0.193860 -0.109699 0.013294 -0.477916
    42 -0.024968 -1.123935 0.017595 -0.280540 0.000000 0.000000
    43 -0.020059 -0.890964 0.010094 -0.388014 -0.000000 -0.000000
    44 -0.488518 -2.755600 -0.228259 -0.003429 0.010331 -0.264493
    45 0.039887 -1.479790 0.029853 -0.296130 0.000000 0.000000
    46 0.028784 -1.075732 -0.023109 -0.480773 -0.000000 -0.000000
    47 0.250027 -2.820664 -0.238394 0.000102 -0.002923 -0.024029
    48 -0.049760 -1.680543 0.100480 -0.189008 0.000000 -0.000000
    49 -0.034142 -1.148310 0.084779 -0.661875 0.000000 0.000000
    50 0.957767 -2.746777 -0.090299 0.020172 -0.162276 0.191555
    51 -0.033420 -1.397126 -0.011255 -0.083237 0.000000 0.000001
    52 -0.022361 -0.957433 0.018785 -0.742252 0.000000 0.000000
    53 0.583509 -1.197273 0.185380 0.883659 -0.355101 -0.444069
    54 1.535925 0.010248 0.005008 -0.002964 -0.272229 0.000890
    55 1.100770 0.004527 -0.010675 -0.002796 -0.377916 0.003459
  time 9
    0 4.985232 0.700362 -4.392666 -1.510957 -0.732845 -4.454247
    1 -0.071920 -8.498732 -0.104134 0.781436 -0.273699 -0.282646
    2 0.324310 -3.644291 2.973205 -0.560397 -1.413034 3.287480
    3 -0.088869 0.170559 2.606216 -0.393785 1.196515 1.798619
    4 -0.011142 0.781255 -0.800262 2.335669 -0.017758 -0.007629
    5 0.000000 0.718097 -0.000002 -0.285157 -0.004087 0.000479
    6 -0.000001 0.897711 1.580295 -0.349779 -0.029879 -0.085813
    7 -0.000000 -0.000000 0.811541 -0.284062 -0.066101 0.498738
    8 2.273234 -1.503693 2.099401 -0.482214 0.223274 0.729826
    9 -2.247455 -1.503693 2.099403 2.659375 -0.223280 -0.729833
    10 0.078373 -2.282062 0.900159 -0.176167 0.008544 0.018050
    11 0.072788 -0.823616 3.271400 -1.000949 0.008544 0.018050
    12 1.775118 -0.139594 1.671897 0.513126 0.811034 3.113585
    13 -1.241366 -1.806391 1.056407 0.843875 -0.061300 2.555561
    14 1.239846 -1.806390 1.056407 0.786762 3.080293 0.586032
    15 1.218724 -1.798575 1.272704 -1.093094 0.061300 -2.555561
    16 0.004859 -0.122106 -0.000735 -0.143821 0.041702 0.036316
    17 -1.061022 -1.480885 1.175125 -0.066700 0.025247 -0.661673
    18 1.061021 -1.480883 1.175125 -1.245861 0.199695 -1.011703
    19 -0.001760 -2.443792 1.190620 0.231764 -0.000000 3.141592
    20 -1.220244 -1.798577 1.272703 1.047195 -0.265195 -3.629162
    21 -0.004860 0.122106 0.000735 0.214708 0.041702 0.036316
    22 -2.665418 -3.335987 -23.417746 -0.336708 2.931048 0.035565
    23 0.096951 -8.450422 -0.009364 -0.626412 0.144465 0.060716
    24 -0.139400 -0.111699 0.014398 0.285526 -0.040597 1.576232
    25 1.164474 -2.543937 -0.170327 -0.810662 -0.031465 0.153685
    26 0.024034 -1.129039 0.017807 -1.325026 0.000000 -0.000001
    27 0.014896 -0.883992 -0.019847 -1.279095 0.000000 -0.000000
    28 0.447949 -2.798981 -0.200442 -0.771444 0.008111 0.214640
    29 -0.032909 -1.480206 0.004935 -1.362344 0.000000 0.000000
    30 -0.027023 -1.076921 -0.020212 -1.216209 0.000000 -0.000000
    31 -0.249535 -2.846962 -0.174215 -0.842731 0.109110 0.040203
    32 0.043235 -1.683941 0.096015 -1.287122 0.000001 0.000000
    33 0.031729 -1.160831 0.058834 -1.258422 -0.000000 -0.000000
    34 -0.963867 -2.785142 -0.085346 -0.846560 0.272730 -0.030675
    35 0.028477 -1.403065 0.006271 -0.868294 0.000001 0.000000
    36 0.021414 -0.957780 0.020046 -1.214462 0.000000 0.000000
    37 -0.591283 -1.257737 0.232709 -1.221545 -0.292101 -2.052773
    38 1.522835 0.058679 0.016852 -0.181773 -0.500376 0.243387
    39 1.117948 0.048424 -0.005766 -0.000243 -1.002274 0.065422
    40 0.120152 -0.042453 -0.015424 3.099574 6.086998 -1.537704
    41 -1.180679 -2.507216 -0.193860 -0.109699 0.013294 -0.477916
    42 -0.024968 -1.123935 0.017595 -0.280540 0.000000 0.000000
    43 -0.020059 -0.890964 0.010094 -0.388002 -0.000000 -0.000000
    44 -0.488518 -2.755600 -0.228259 -0.003429 0.010331 -0.264493
    45 0.039887 -1.479790 0.029853 -0.296130 0.000000 0.000000
    46 0.028784 -1.075732 -0.023109 -0.480773 -0.000000 -0.000000
    47 0.250027 -2.820664 -0.238394 0.000102 -0.002923 -0.024029
    48 -0.049760 -1.680543 0.100480 -0.189008 0.000000 -0.000000
    49 -0.034142 -1.148310 0.084779 -0.661875 0.000000 0.000000
    50 0.957767 -2.746777 -0.090299 0.020172 -0.162276 0.191555
    51 -0.033420 -1.397126 -0.011255 -0.083237 0.000000 0.000001
    52 -0.022361 -0.957433 0.018785 -0.742252 0.000000 0.000000
    53 0.583509 -1.197273 0.185380 0.883659 -0.355101 -0.444069
    54 1.535925 0.010248 0.005008 -0.002964 -0.272229 0.000890
    55 1.100770 0.004527 -0.010675 -0.002796 -0.377916 0.003459
  time 10
    0 4.950075 0.383946 -4.627048 1.322099 -2.342504 -1.218939
    1 -0.071920 -8.498732 -0.104134 0.612158 -0.345753 -0.233043
    2 0.324310 -3.644291 2.973205 -0.560397 -1.413034 3.287480
    3 -0.088869 0.170559 2.606216 -0.393785 1.196515 1.798619
    4 -0.011142 0.781255 -0.800262 2.352334 -0.017758 -0.007629
    5 0.000000 0.718097 -0.000002 -0.297183 -0.004087 0.000479
    6 -0.000001 0.897711 1.580295 -0.361812 -0.029879 -0.085813
    7 -0.000000 -0.000000 0.811541 -0.308623 -0.064136 0.505186
    8 2.277141 -1.503693 2.103308 -0.482214 0.223274 0.729826
    9 -2.251361 -1.503693 2.103310 2.659375 -0.223280 -0.729833
    10 0.078373 -2.285968 0.900159 -0.176167 0.008544 0.018050
    11 0.072788 -0.827522 3.275306 -1.000949 0.008544 0.018050
    12 1.775118 -0.139594 1.671897 0.513126 0.811034 3.113585
    13 -1.241366 -1.806391 1.056407 0.832025 -0.061300 2.555561
    14 1.239846 -1.806390 1.056407 0.775916 3.080293 0.586032
    15 1.218724 -1.798575 1.272704 -1.085994 0.061300 -2.555561
    16 0.004859 -0.122106 -0.000735 -0.150075 0.041702 0.036316
    17 -1.061022 -1.480885 1.175125 -0.067357 0.025976 -0.660627
    18 1.061021 -1.480883 1.175125 -1.275284 0.195897 -1.006475
    19 -0.001760 -2.443792 1.182807 0.231764 -0.000000 3.141592
    20 -1.220244 -1.798577 1.272703 1.029014 -0.271000 -3.626094
    21 -0.004860 0.122106 0.000735 0.220583 0.041702 0.036316
    22 -2.665418 -3.335987 -23.417746 -0.336708 2.931048 0.035565
    23 0.096951 -8.450422 -0.009364 -0.626412 0.144465 0.060716
    24 -0.139400 -0.111699 0.014398 0.285526 -0.040597 1.576232
    25 1.164474 -2.543937 -0.170327 -0.810662 -0.031465 0.153685
    26 0.024034 -1.129039 0.017807 -1.325026 0.000000 -0.000001
    27 0.014896 -0.883992 -0.019847 -1.279095 0.000000 -0.000000
    28 0.447949 -2.798981 -0.200442 -0.771444 0.008111 0.214640
    29 -0.032909 -1.480206 0.004935 -1.362344 0.000000 0.000000
    30 -0.027023 -1.076921 -0.020212 -1.216209 0.000000 -0.000000
    31 -0.249535 -2.846962 -0.174215 -0.842731 0.109110 0.040203
    32 0.043235 -1.683941 0.096015 -1.287122 0.000001 0.000000
    33 0.031729 -1.160831 0.058834 -1.258422 -0.000000 -0.000000
    34 -0.963867 -2.785142 -0.085346 -0.846560 0.272730 -0.030675
    35 0.028477 -1.403065 0.006271 -0.868294 0.000001 0.000000
    36 0.021414 -0.957780 0.020046 -1.214462 0.000000 0.000000
    37 -0.591283 -1.257737 0.232709 -1.221545 -0.292101 -2.052773
    38 1.522835 0.058679 0.016852 -0.181773 -0.500376 0.243387
    39 1.117948 0.048424 -0.005766 -0.000243 -1.002274 0.065422
    40 0.120152 -0.042453 -0.007612 3.076998 6.071149 -1.534937
    41 -1.180679 -2.507216 -0.193860 -0.109699 0.013294 -0.477916
    42 -0.024968 -1.123935 0.017595 -0.280540 0.000000 0.000000
    43 -0.020059 -0.890964 0.010094 -0.388002 -0.000000 -0.000000
    44 -0.488518 -2.755600 -0.228259 -0.003429 0.010331 -0.264493
    45 0.039887 -1.479790 0.029853 -0.296130 0.000000 0.000000
    46 0.028784 -1.075732 -0.023109 -0.480773 -0.000000 -0.000000
    47 0.250027 -2.820664 -0.238394 0.000102 -0.002923 -0.024029
    48 -0.049760 -1.680543 0.100480 -0.189008 0.000000 -0.000000
    49 -0.034142 -1.148310 0.084779 -0.661875 0.000000 0.000000
    50 0.957767 -2.746777 -0.090299 0.020172 -0.162276 0.191555
    51 -0.033420 -1.397126 -0.011255 -0.083237 0.000000 0.000001
    52 -0.022361 -0.957433 0.018785 -0.742252 0.000000 0.000000
    53 0.583509 -1.197273 0.185380 0.883659 -0.355101 -0.444069
    54 1.535925 0.010248 0.005008 -0.002964 -0.272229 0.000890
    55 1.100770 0.004527 -0.010675 -0.002796 -0.377916 0.003459
  time 11
    0 5.192269 0.094875 -4.798928 1.057387 -2.300980 -1.062528
    1 -0.071920 -8.498732 -0.104134 0.333287 -0.388944 -0.203290
    2 14.660685 45.439240 -17.945402 -0.560397 -1.413034 3.287480
    3 -0.088869 0.170559 2.606216 -0.393785 1.196515 1.798619
    4 -0.011142 0.781255 -0.800262 2.352334 -0.017758 -0.007629
    5 0.000000 0.718097 -0.000002 -0.297183 -0.004087 0.000479
    6 -0.000001 0.897711 1.580295 -0.361812 -0.029879 -0.085813
    7 -0.000000 -0.000000 0.811541 -0.308623 -0.064136 0.505186
    8 2.277141 -1.503693 2.103308 -0.482214 0.223274 0.729826
    9 -2.251361 -1.503693 2.103310 2.659375 -0.223280 -0.729833
    10 0.078373 -2.285968 0.900159 -0.176167 0.008544 0.018050
    11 0.072788 -0.827522 3.275306 -1.000949 0.008544 0.018050
    12 1.775118 -0.139594 1.671897 0.513126 0.811034 3.113585
    13 -1.241366 -1.806391 1.056407 0.832025 -0.061300 2.555561
    14 1.239846 -1.806390 1.056407 0.775916 3.080293 0.586032
    15 1.218724 -1.798575 1.272704 -1.085994 0.061300 -2.555561
    16 0.004859 -0.122106 -0.000735 -0.150075 0.041702 0.036316
    17 -1.061022 -1.480885 1.175125 -0.067357 0.025976 -0.660627
    18 1.061021 -1.480883 1.175125 -1.275284 0.195897 -1.006475
    19 -0.001760 -2.443792 1.182807 0.231764 -0.000000 3.141592
    20 -1.220244 -1.798577 1.272703 1.029014 -0.271000 -3.626094
    21 -0.004860 0.122106 0.000735 0.220583 0.041702 0.036316
    22 -2.665418 -3.335987 -23.417746 -0.336708 2.931048 0.035565
    23 0.096951 -8.450422 -0.009364 -0.626412 0.144465 0.060716
    24 -0.139400 -0.111699 0.014398 0.285526 -0.040597 1.576232
    25 1.164474 -2.543937 -0.170327 -0.810662 -0.031465 0.153685
    26 0.024034 -1.129039 0.017807 -1.325026 0.000000 -0.000001
    27 0.014896 -0.883992 -0.019847 -1.279095 0.000000 -0.000000
    28 0.447949 -2.798981 -0.200442 -0.771444 0.008111 0.214640
    29 -0.032909 -1.480206 0.004935 -1.362344 0.000000 0.000000
    30 -0.027023 -1.076921 -0.020212 -1.216209 0.000000 -0.000000
    31 -0.249535 -2.846962 -0.174215 -0.842731 0.109110 0.040203
    32 0.043235 -1.683941 0.096015 -1.287122 0.000001 0.000000
    33 0.031729 -1.160831 0.058834 -1.258422 -0.000000 -0.000000
    34 -0.963867 -2.785142 -0.085346 -0.846560 0.272730 -0.030675
    35 0.028477 -1.403065 0.006271 -0.868294 0.000001 0.000000
    36 0.021414 -0.957780 0.020046 -1.214462 0.000000 0.000000
    37 -0.591283 -1.257737 0.232709 -1.221545 -0.292101 -2.052773
    38 1.522835 0.058679 0.016852 -0.181773 -0.500376 0.243387
    39 1.117948 0.048424 -0.005766 -0.000243 -1.002274 0.065422
    40 0.124058 -0.038547 0.004108 3.068763 6.065422 -1.533887
    41 -1.180679 -2.507216 -0.193860 -0.109699 0.013294 -0.477916
    42 -0.024968 -1.123935 0.017595 -0.280540 0.000000 0.000000
    43 -0.020059 -0.890964 0.010094 -0.388002 -0.000000 -0.000000
    44 -0.488518 -2.755600 -0.228259 -0.003429 0.010331 -0.264493
    45 0.039887 -1.479790 0.029853 -0.296130 0.000000 0.000000
    46 0.028784 -1.075732 -0.023109 -0.480773 -0.000000 -0.000000
    47 0.250027 -2.820664 -0.238394 0.000102 -0.002923 -0.024029
    48 -0.049760 -1.680543 0.100480 -0.189008 0.000000 -0.000000
    49 -0.034142 -1.148310 0.084779 -0.661875 0.000000 0.000000
    50 0.957767 -2.746777 -0.090299 0.020172 -0.162276 0.191555
    51 -0.033420 -1.397126 -0.011255 -0.083237 0.000000 0.000001
    52 -0.022361 -0.957433 0.018785 -0.742252 0.000000 0.000000
    53 0.583509 -1.197273 0.185380 0.883659 -0.355101 -0.444069
    54 1.535925 0.010248 0.005008 -0.002964 -0.272229 0.000890
    55 1.100770 0.004527 -0.010675 -0.002796 -0.377916 0.003459
  time 12
    0 5.446183 0.028466 -5.279411 0.714134 -2.279466 -0.851103
    1 -0.071920 -8.498732 -0.104134 -0.101462 -0.392019 -0.201248
    2 14.660685 45.439240 -17.945402 -0.560397 -1.413034 3.287480
    3 -0.088869 0.170559 2.606216 -0.393785 1.196515 1.798619
    4 -0.011142 0.781255 -0.800262 2.352334 -0.017758 -0.007629
    5 0.000000 0.718097 -0.000002 -0.297183 -0.004087 0.000479
    6 -0.000001 0.897711 1.580295 -0.361812 -0.029879 -0.085813
    7 -0.000000 -0.000000 0.811541 -0.308623 -0.064136 0.505186
    8 2.277141 -1.503693 2.103308 -0.482214 0.223274 0.729826
    9 -2.251361 -1.503693 2.103310 2.659375 -0.223280 -0.729833
    10 0.078373 -2.285968 0.900159 -0.176167 0.008544 0.018050
    11 0.072788 -0.827522 3.275306 -1.000949 0.008544 0.018050
    12 1.775118 -0.139594 1.671897 0.513126 0.811034 3.113585
    13 -1.241366 -1.806391 1.056407 0.832025 -0.061300 2.555561
    14 1.239846 -1.806390 1.056407 0.775916 3.080293 0.586032
    15 1.218724 -1.798575 1.272704 -1.085994 0.061300 -2.555561
    16 0.004859 -0.122106 -0.000735 -0.150075 0.041702 0.036316
    17 -1.061022 -1.480885 1.175125 -0.067357 0.025976 -0.660627
    18 1.061021 -1.480883 1.175125 -1.275284 0.195897 -1.006475
    19 -0.001760 -2.443792 1.182807 0.231764 -0.000000 3.141592
    20 -1.220244 -1.798577 1.272703 1.029014 -0.271000 -3.626094
    21 -0.004860 0.122106 0.000735 0.220583 0.041702 0.036316
    22 -2.665418 -3.335987 -23.417746 -0.336708 2.931048 0.035565
    23 0.096951 -8.450422 -0.009364 -0.626412 0.144465 0.060716
    24 -0.139400 -0.111699 0.014398 0.285526 -0.040597 1.576232
    25 1.164474 -2.543937 -0.170327 -0.810662 -0.031465 0.153685
    26 0.024034 -1.129039 0.017807 -1.325026 0.000000 -0.000001
    27 0.014896 -0.883992 -0.019847 -1.279095 0.000000 -0.000000
    28 0.447949 -2.798981 -0.200442 -0.771444 0.008111 0.214640
    29 -0.032909 -1.480206 0.004935 -1.362344 0.000000 0.000000
    30 -0.027023 -1.076921 -0.020212 -1.216209 0.000000 -0.000000
    31 -0.249535 -2.846962 -0.174215 -0.842731 0.109110 0.040203
    32 0.043235 -1.683941 0.096015 -1.287122 0.000001 0.000000
    33 0.031729 -1.160831 0.058834 -1.258422 -0.000000 -0.000000
    34 -0.963867 -2.785142 -0.085346 -0.846560 0.272730 -0.030675
    35 0.028477 -1.403065 0.006271 -0.868294 0.000001 0.000000
    36 0.021414 -0.957780 0.020046 -1.214462 0.000000 0.000000
    37 -0.591283 -1.257737 0.232709 -1.221545 -0.292101 -2.052773
    38 1.522835 0.058679 0.016852 -0.181773 -0.500376 0.243387
    39 1.117948 0.048424 -0.005766 -0.000243 -1.002274 0.065422
    40 0.127965 -0.022921 0.070516 3.158512 6.142275 -1.525107
    41 -1.180679 -2.507216 -0.193860 -0.109699 0.013294 -0.477916
    42 -0.024968 -1.123935 0.017595 -0.280540 0.000000 0.000000
    43 -0.020059 -0.890964 0.010094 -0.388002 -0.000000 -0.000000
    44 -0.488518 -2.755600 -0.228259 -0.003429 0.010331 -0.264493
    45 0.039887 -1.479790 0.029853 -0.296130 0.000000 0.000000
    46 0.028784 -1.075732 -0.023109 -0.480773 -0.000000 -0.000000
    47 0.250027 -2.820664 -0.238394 0.000102 -0.002923 -0.024029
    48 -0.049760 -1.680543 0.100480 -0.189008 0.000000 -0.000000
    49 -0.034142 -1.148310 0.084779 -0.661875 0.000000 0.000000
    50 0.957767 -2.746777 -0.090299 0.020172 -0.162276 0.191555
    51 -0.033420 -1.397126 -0.011255 -0.083237 0.000000 0.000001
    52 -0.022361 -0.957433 0.018785 -0.742252 0.000000 0.000000
    53 0.583509 -1.197273 0.185380 0.883659 -0.355101 -0.444069
    54 1.535925 0.010248 0.005008 -0.002964 -0.272229 0.000890
    55 1.100770 0.004527 -0.010675 -0.002796 -0.377916 0.003459
  time 13
    0 5.118049 0.227691 -6.439603 0.259012 -2.294129 -0.634809
    1 -0.071920 -8.498732 -0.104134 -0.553413 -0.388944 -0.203290
    2 14.609902 33.767006 34.845272 -2.103431 -0.176514 -1.483402
    3 -0.088869 0.170559 2.606216 -0.393785 1.196515 1.798619
    4 -0.011142 0.781255 -0.800262 2.352334 -0.017758 -0.007629
    5 0.000000 0.718097 -0.000002 -0.297183 -0.004087 0.000479
    6 -0.000001 0.897711 1.580295 -0.361812 -0.029879 -0.085813
    7 -0.000000 -0.000000 0.811541 -0.308623 -0.064136 0.505186
    8 2.277141 -1.503693 2.103308 -0.482214 0.223274 0.729826
    9 -2.251361 -1.503693 2.103310 2.659375 -0.223280 -0.729833
    10 0.078373 -2.285968 0.900159 -0.176167 0.008544 0.018050
    11 0.072788 -0.827522 3.275306 -1.000949 0.008544 0.018050
    12 1.775118 -0.139594 1.671897 0.513126 0.811034 3.113585
    13 -1.241366 -1.806391 1.056407 0.832025 -0.061300 2.555561
    14 1.239846 -1.806390 1.056407 0.775916 3.080293 0.586032
    15 1.218724 -1.798575 1.272704 -1.085994 0.061300 -2.555561
    16 0.004859 -0.122106 -0.000735 -0.150075 0.041702 0.036316
    17 -1.061022 -1.480885 1.175125 -0.067357 0.025976 -0.660627
    18 1.061021 -1.480883 1.175125 -1.275284 0.195897 -1.006475
    19 -0.001760 -2.443792 1.182807 0.231764 -0.000000 3.141592
    20 -1.220244 -1.798577 1.272703 1.029014 -0.271000 -3.626094
    21 -0.004860 0.122106 0.000735 0.220583 0.041702 0.036316
    22 -2.665418 -3.335987 -23.417746 -0.336708 2.931048 0.035565
    23 0.096951 -8.450422 -0.009364 -0.626412 0.144465 0.060716
    24 -0.139400 -0.111699 0.014398 0.285526 -0.040597 1.576232
    25 1.164474 -2.543937 -0.170327 -0.810662 -0.031465 0.153685
    26 0.024034 -1.129039 0.017807 -1.325026 0.000000 -0.000001
    27 0.014896 -0.883992 -0.019847 -1.279095 0.000000 -0.000000
    28 0.447949 -2.798981 -0.200442 -0.771444 0.008111 0.214640
    29 -0.032909 -1.480206 0.004935 -1.362344 0.000000 0.000000
    30 -0.027023 -1.076921 -0.020212 -1.216209 0.000000 -0.000000
    31 -0.249535 -2.846962 -0.174215 -0.842731 0.109110 0.040203
    32 0.043235 -1.683941 0.096015 -1.287122 0.000001 0.000000
    33 0.031729 -1.160831 0.058834 -1.258422 -0.000000 -0.000000
    34 -0.963867 -2.785142 -0.085346 -0.846560 0.272730 -0.030675
    35 0.028477 -1.403065 0.006271 -0.868294 0.000001 0.000000
    36 0.021414 -0.957780 0.020046 -1.214462 0.000000 0.000000
    37 -0.591283 -1.257737 0.232709 -1.221545 -0.292101 -2.052773
    38 1.522835 0.058679 0.016852 -0.181773 -0.500376 0.243387
    39 1.117948 0.048424 -0.005766 -0.000243 -1.002274 0.065422
    40 0.131871 -0.011202 0.129111 3.250111 6.219129 -1.516804
    41 -1.180679 -2.507216 -0.193860 -0.109699 0.013294 -0.477916
    42 -0.024968 -1.123935 0.017595 -0.280540 0.000000 0.000000
    43 -0.020059 -0.890964 0.010094 -0.388002 -0.000000 -0.000000
    44 -0.488518 -2.755600 -0.228259 -0.003429 0.010331 -0.264493
    45 0.039887 -1.479790 0.029853 -0.296130 0.000000 0.000000
    46 0.028784 -1.075732 -0.023109 -0.480773 -0.000000 -0.000000
    47 0.250027 -2.820664 -0.238394 0.000102 -0.002923 -0.024029
    48 -0.049760 -1.680543 0.100480 -0.189008 0.000000 -0.000000
    49 -0.034142 -1.148310 0.084779 -0.661875 0.000000 0.000000
    50 0.957767 -2.746777 -0.090299 0.020172 -0.162276 0.191555
    51 -0.033420 -1.397126 -0.011255 -0.083237 0.000000 0.000001
    52 -0.022361 -0.957433 0.018785 -0.742252 0.000000 0.000000
    53 0.583509 -1.197273 0.185380 0.883659 -0.355101 -0.444069
    54 1.535925 0.010248 0.005008 -0.002964 -0.272229 0.000890
    55 1.100770 0.004527 -0.010675 -0.002796 -0.377916 0.003459
  time 14
    0 4.657097 0.532388 -7.740424 -0.302903 -2.353324 -0.409607
    1 -0.071920 -8.498732 -0.104134 -0.878202 -0.388944 -0.203290
    2 16.871691 8.234978 45.540909 -2.106352 0.562569 -1.388669
    3 -0.088869 0.170559 2.606216 -0.393785 1.196515 1.798619
    4 -0.011142 0.781255 -0.800262 2.352334 -0.017758 -0.007629
    5 0.000000 0.718097 -0.000002 -0.297183 -0.004087 0.000479
    6 -0.000001 0.897711 1.580295 -0.361812 -0.029879 -0.085813
    7 -0.000000 -0.000000 0.811541 -0.308623 -0.064136 0.505186
    8 2.277141 -1.503693 2.103308 -0.482214 0.223274 0.729826
    9 -2.251361 -1.503693 2.103310 2.659375 -0.223280 -0.729833
    10 0.078373 -2.285968 0.900159 -0.176167 0.008544 0.018050
    11 0.072788 -0.827522 3.275306 -1.000949 0.008544 0.018050
    12 1.775118 -0.139594 1.671897 0.513126 0.811034 3.113585
    13 -1.241366 -1.806391 1.056407 0.832025 -0.061300 2.555561
    14 1.239846 -1.806390 1.056407 0.775916 3.080293 0.586032
    15 1.218724 -1.798575 1.272704 -1.085994 0.061300 -2.555561
    16 0.004859 -0.122106 -0.000735 -0.150075 0.041702 0.036316
    17 -1.061022 -1.480885 1.175125 -0.067357 0.025976 -0.660627
    18 1.061021 -1.480883 1.175125 -1.275284 0.195897 -1.006475
    19 -0.001760 -2.443792 1.182807 0.231764 -0.000000 3.141592
    20 -1.220244 -1.798577 1.272703 1.029014 -0.271000 -3.626094
    21 -0.004860 0.122106 0.000735 0.220583 0.041702 0.036316
    22 -2.665418 -3.335987 -23.417746 -0.336708 2.931048 0.035565
    23 0.096951 -8.450422 -0.009364 -0.626412 0.144465 0.060716
    24 -0.139400 -0.111699 0.014398 0.285526 -0.040597 1.576232
    25 1.164474 -2.543937 -0.170327 -0.810662 -0.031465 0.153685
    26 0.024034 -1.129039 0.017807 -1.325026 0.000000 -0.000001
    27 0.014896 -0.883992 -0.019847 -1.279095 0.000000 -0.000000
    28 0.447949 -2.798981 -0.200442 -0.771444 0.008111 0.214640
    29 -0.032909 -1.480206 0.004935 -1.362344 0.000000 0.000000
    30 -0.027023 -1.076921 -0.020212 -1.216209 0.000000 -0.000000
    31 -0.249535 -2.846962 -0.174215 -0.842731 0.109110 0.040203
    32 0.043235 -1.683941 0.096015 -1.287122 0.000001 0.000000
    33 0.031729 -1.160831 0.058834 -1.258422 -0.000000 -0.000000
    34 -0.963867 -2.785142 -0.085346 -0.846560 0.272730 -0.030675
    35 0.028477 -1.403065 0.006271 -0.868294 0.000001 0.000000
    36 0.021414 -0.957780 0.020046 -1.214462 0.000000 0.000000
    37 -0.591283 -1.257737 0.232709 -1.221545 -0.292101 -2.052773
    38 1.522835 0.058679 0.016852 -0.181773 -0.500376 0.243387
    39 1.117948 0.048424 -0.005766 -0.000243 -1.002274 0.065422
    40 0.131871 -0.011202 0.129111 3.250111 6.219129 -1.516804
    41 -1.180679 -2.507216 -0.193860 -0.109699 0.013294 -0.477916
    42 -0.024968 -1.123935 0.017595 -0.280540 0.000000 0.000000
    43 -0.020059 -0.890964 0.010094 -0.388002 -0.000000 -0.000000
    44 -0.488518 -2.755600 -0.228259 -0.003429 0.010331 -0.264493
    45 0.039887 -1.479790 0.029853 -0.296130 0.000000 0.000000
    46 0.028784 -1.075732 -0.023109 -0.480773 -0.000000 -0.000000
    47 0.250027 -2.820664 -0.238394 0.000102 -0.002923 -0.024029
    48 -0.049760 -1.680543 0.100480 -0.189008 0.000000 -0.000000
    49 -0.034142 -1.148310 0.084779 -0.661875 0.000000 0.000000
    50 0.957767 -2.746777 -0.090299 0.020172 -0.162276 0.191555
    51 -0.033420 -1.397126 -0.011255 -0.083237 0.000000 0.000001
    52 -0.022361 -0.957433 0.018785 -0.742252 0.000000 0.000000
    53 0.583509 -1.197273 0.185380 0.883659 -0.355101 -0.444069
    54 1.535925 0.010248 0.005008 -0.002964 -0.272229 0.000890
    55 1.100770 0.004527 -0.010675 -0.002796 -0.377916 0.003459
  time 15
    0 4.340681 0.790208 -8.709204 -0.978580 -2.472465 -0.190007
    1 -0.071920 -8.498732 -0.104134 -1.123962 -0.388944 -0.203290
    2 17.606087 -0.773109 43.896328 -2.193227 0.321558 -1.496763
    3 -0.088869 0.170559 2.606216 -0.393785 1.196515 1.798619
    4 -0.011142 0.781255 -0.800262 2.352334 -0.017758 -0.007629
    5 0.000000 0.718097 -0.000002 -0.297183 -0.004087 0.000479
    6 -0.000001 0.897711 1.580295 -0.361812 -0.029879 -0.085813
    7 -0.000000 -0.000000 0.811541 -0.308623 -0.064136 0.505186
    8 2.277141 -1.503693 2.103308 -0.482214 0.223274 0.729826
    9 -2.251361 -1.503693 2.103310 2.659375 -0.223280 -0.729833
    10 0.078373 -2.285968 0.900159 -0.176167 0.008544 0.018050
    11 0.072788 -0.827522 3.275306 -1.000949 0.008544 0.018050
    12 1.775118 -0.139594 1.671897 0.513126 0.811034 3.113585
    13 -1.241366 -1.806391 1.056407 0.832025 -0.061300 2.555561
    14 1.239846 -1.806390 1.056407 0.775916 3.080293 0.586032
    15 1.218724 -1.798575 1.272704 -1.085994 0.061300 -2.555561
    16 0.004859 -0.122106 -0.000735 -0.150075 0.041702 0.036316
    17 -1.061022 -1.480885 1.175125 -0.067357 0.025976 -0.660627
    18 1.061021 -1.480883 1.175125 -1.275284 0.195897 -1.006475
    19 -0.001760 -2.443792 1.182807 0.231764 -0.000000 3.141592
    20 -1.220244 -1.798577 1.272703 1.029014 -0.271000 -3.626094
    21 -0.004860 0.122106 0.000735 0.220583 0.041702 0.036316
    22 -2.665418 -3.335987 -23.417746 -0.336708 2.931048 0.035565
    23 0.096951 -8.450422 -0.009364 -0.626412 0.144465 0.060716
    24 -0.139400 -0.111699 0.014398 0.285526 -0.040597 1.576232
    25 1.164474 -2.543937 -0.170327 -0.810662 -0.031465 0.153685
    26 0.024034 -1.129039 0.017807 -1.325026 0.000000 -0.000001
    27 0.014896 -0.883992 -0.019847 -1.279095 0.000000 -0.000000
    28 0.447949 -2.798981 -0.200442 -0.771444 0.008111 0.214640
    29 -0.032909 -1.480206 0.004935 -1.362344 0.000000 0.000000
    30 -0.027023 -1.076921 -0.020212 -1.216209 0.000000 -0.000000
    31 -0.249535 -2.846962 -0.174215 -0.842731 0.109110 0.040203
    32 0.043235 -1.683941 0.096015 -1.287122 0.000001 0.000000
    33 0.031729 -1.160831 0.058834 -1.258422 -0.000000 -0.000000
    34 -0.963867 -2.785142 -0.085346 -0.846560 0.272730 -0.030675
    35 0.028477 -1.403065 0.006271 -0.868294 0.000001 0.000000
    36 0.021414 -0.957780 0.020046 -1.214462 0.000000 0.000000
    37 -0.591283 -1.257737 0.232709 -1.221545 -0.292101 -2.052773
    38 1.522835 0.058679 0.016852 -0.181773 -0.500376 0.243387
    39 1.117948 0.048424 -0.005766 -0.000243 -1.002274 0.065422
    40 0.131871 -0.011202 0.129111 3.250111 6.219129 -1.516804
    41 -1.180679 -2.507216 -0.193860 -0.109699 0.013294 -0.477916
    42 -0.024968 -1.123935 0.017595 -0.280540 0.000000 0.000000
    43 -0.020059 -0.890964 0.010094 -0.388002 -0.000000 -0.000000
    44 -0.488518 -2.755600 -0.228259 -0.003429 0.010331 -0.264493
    45 0.039887 -1.479790 0.029853 -0.296130 0.000000 0.000000
    46 0.028784 -1.075732 -0.023109 -0.480773 -0.000000 -0.000000
    47 0.250027 -2.820664 -0.238394 0.000102 -0.002923 -0.024029
    48 -0.049760 -1.680543 0.100480 -0.189008 0.000000 -0.000000
    49 -0.034142 -1.148310 0.084779 -0.661875 0.000000 0.000000
    50 0.957767 -2.746777 -0.090299 0.020172 -0.162276 0.191555
    51 -0.033420 -1.397126 -0.011255 -0.083237 0.000000 0.000001
    52 -0.022361 -0.957433 0.018785 -0.742252 0.000000 0.000000
    53 0.583509 -1.197273 0.185380 0.883659 -0.355101 -0.444069
    54 1.535925 0.010248 0.005008 -0.002964 -0.272229 0.000890
    55 1.100770 0.004527 -0.010675 -0.002796 -0.377916 0.003459
  time 16
    0 4.078954 1.044122 -9.513916 -1.038491 -2.529863 -0.171455
    1 -0.071920 -8.498732 -0.104134 -1.290694 -0.388944 -0.203290
    2 18.285795 -9.437436 39.786827 0.874371 -2.802794 1.488761
    3 -0.088869 0.170559 2.606216 -0.393785 1.196515 1.798619
    4 -0.011142 0.781255 -0.800262 2.352334 -0.017758 -0.007629
    5 0.000000 0.718097 -0.000002 -0.297183 -0.004087 0.000479
    6 -0.000001 0.897711 1.580295 -0.361812 -0.029879 -0.085813
    7 -0.000000 -0.000000 0.811541 -0.308623 -0.064136 0.505186
    8 2.277141 -1.503693 2.103308 -0.482214 0.223274 0.729826
    9 -2.251361 -1.503693 2.103310 2.659375 -0.223280 -0.729833
    10 0.078373 -2.285968 0.900159 -0.176167 0.008544 0.018050
    11 0.072788 -0.827522 3.275306 -1.000949 0.008544 0.018050
    12 1.775118 -0.139594 1.671897 0.513126 0.811034 3.113585
    13 -1.241366 -1.806391 1.056407 0.832025 -0.061300 2.555561
    14 1.239846 -1.806390 1.056407 0.775916 3.080293 0.586032
    15 1.218724 -1.798575 1.272704 -1.085994 0.061300 -2.555561
    16 0.004859 -0.122106 -0.000735 -0.150075 0.041702 0.036316
    17 -1.061022 -1.480885 1.175125 -0.067357 0.025976 -0.660627
    18 1.061021 -1.480883 1.175125 -1.275284 0.195897 -1.006475
    19 -0.001760 -2.443792 1.182807 0.231764 -0.000000 3.141592
    20 -1.220244 -1.798577 1.272703 1.029014 -0.271000 -3.626094
    21 -0.004860 0.122106 0.000735 0.220583 0.041702 0.036316
    22 -2.665418 -3.335987 -23.417746 -0.336708 2.931048 0.035565
    23 0.096951 -8.450422 -0.009364 -0.626412 0.144465 0.060716
    24 -0.139400 -0.111699 0.014398 0.285526 -0.040597 1.576232
    25 1.164474 -2.543937 -0.170327 -0.810662 -0.031465 0.153685
    26 0.024034 -1.129039 0.017807 -1.325026 0.000000 -0.000001
    27 0.014896 -0.883992 -0.019847 -1.279095 0.000000 -0.000000
    28 0.447949 -2.798981 -0.200442 -0.771444 0.008111 0.214640
    29 -0.032909 -1.480206 0.004935 -1.362344 0.000000 0.000000
    30 -0.027023 -1.076921 -0.020212 -1.216209 0.000000 -0.000000
    31 -0.249535 -2.846962 -0.174215 -0.842731 0.109110 0.040203
    32 0.043235 -1.683941 0.096015 -1.287122 0.000001 0.000000
    33 0.031729 -1.160831 0.058834 -1.258422 -0.000000 -0.000000
    34 -0.963867 -2.785142 -0.085346 -0.846560 0.272730 -0.030675
    35 0.028477 -1.403065 0.006271 -0.868294 0.000001 0.000000
    36 0.021414 -0.957780 0.020046 -1.214462 0.000000 0.000000
    37 -0.591283 -1.257737 0.232709 -1.221545 -0.292101 -2.052773
    38 1.522835 0.058679 0.016852 -0.181773 -0.500376 0.243387
    39 1.117948 0.048424 -0.005766 -0.000243 -1.002274 0.065422
    40 0.131871 -0.011202 0.129111 3.250111 6.219129 -1.516804
    41 -1.180679 -2.507216 -0.193860 -0.109699 0.013294 -0.477916
    42 -0.024968 -1.123935 0.017595 -0.280540 0.000000 0.000000
    43 -0.020059 -0.890964 0.010094 -0.388002 -0.000000 -0.000000
    44 -0.488518 -2.755600 -0.228259 -0.003429 0.010331 -0.264493
    45 0.039887 -1.479790 0.029853 -0.296130 0.000000 0.000000
    46 0.028784 -1.075732 -0.023109 -0.480773 -0.000000 -0.000000
    47 0.250027 -2.820664 -0.238394 0.000102 -0.002923 -0.024029
    48 -0.049760 -1.680543 0.100480 -0.189008 0.000000 -0.000000
    49 -0.034142 -1.148310 0.084779 -0.661875 0.000000 0.000000
    50 0.957767 -2.746777 -0.090299 0.020172 -0.162276 0.191555
    51 -0.033420 -1.397126 -0.011255 -0.083237 0.000000 0.000001
    52 -0.022361 -0.957433 0.018785 -0.742252 0.000000 0.000000
    53 0.583509 -1.197273 0.185380 0.883659 -0.355101 -0.444069
    54 1.535925 0.010248 0.005008 -0.002964 -0.272229 0.000890
    55 1.100770 0.004527 -0.010675 -0.002796 -0.377916 0.003459
  time 17
    0 3.868010 1.301943 -10.146748 -1.180730 -2.594363 -0.128012
    1 -0.071920 -8.498732 -0.104134 -1.378397 -0.388944 -0.203290
    2 18.883471 -17.183767 34.442917 1.118603 -1.882997 1.088025
    3 -0.088869 0.170559 2.606216 -0.393785 1.196515 1.798619
    4 -0.011142 0.781255 -0.800262 2.352334 -0.017758 -0.007629
    5 0.000000 0.718097 -0.000002 -0.297183 -0.004087 0.000479
    6 -0.000001 0.897711 1.580295 -0.361812 -0.029879 -0.085813
    7 -0.000000 -0.000000 0.811541 -0.308623 -0.064136 0.505186
    8 2.277141 -1.503693 2.103308 -0.482214 0.223274 0.729826
    9 -2.251361 -1.503693 2.103310 2.659375 -0.223280 -0.729833
    10 0.078373 -2.285968 0.900159 -0.176167 0.008544 0.018050
    11 0.072788 -0.827522 3.275306 -1.000949 0.008544 0.018050
    12 1.775118 -0.139594 1.671897 0.513126 0.811034 3.113585
    13 -1.241366 -1.806391 1.056407 0.832025 -0.061300 2.555561
    14 1.239846 -1.806390 1.056407 0.775916 3.080293 0.586032
    15 1.218724 -1.798575 1.272704 -1.085994 0.061300 -2.555561
    16 0.004859 -0.122106 -0.000735 -0.150075 0.041702 0.036316
    17 -1.061022 -1.480885 1.175125 -0.067357 0.025976 -0.660627
    18 1.061021 -1.480883 1.175125 -1.275284 0.195897 -1.006475
    19 -0.001760 -2.443792 1.182807 0.231764 -0.000000 3.141592
    20 -1.220244 -1.798577 1.272703 1.029014 -0.271000 -3.626094
    21 -0.004860 0.122106 0.000735 0.220583 0.041702 0.036316
    22 -2.665418 -3.335987 -23.417746 -0.336708 2.931048 0.035565
    23 0.096951 -8.450422 -0.009364 -0.626412 0.144465 0.060716
    24 -0.139400 -0.111699 0.014398 0.285526 -0.040597 1.576232
    25 1.164474 -2.543937 -0.170327 -0.810662 -0.031465 0.153685
    26 0.024034 -1.129039 0.017807 -1.325026 0.000000 -0.000001
    27 0.014896 -0.883992 -0.019847 -1.279095 0.000000 -0.000000
    28 0.447949 -2.798981 -0.200442 -0.771444 0.008111 0.214640
    29 -0.032909 -1.480206 0.004935 -1.362344 0.000000 0.000000
    30 -0.027023 -1.076921 -0.020212 -1.216209 0.000000 -0.000000
    31 -0.249535 -2.846962 -0.174215 -0.842731 0.109110 0.040203
    32 0.043235 -1.683941 0.096015 -1.287122 0.000001 0.000000
    33 0.031729 -1.160831 0.058834 -1.258422 -0.000000 -0.000000
    34 -0.963867 -2.785142 -0.085346 -0.846560 0.272730 -0.030675
    35 0.028477 -1.403065 0.006271 -0.868294 0.000001 0.000000
    36 0.021414 -0.957780 0.020046 -1.214462 0.000000 0.000000
    37 -0.591283 -1.257737 0.232709 -1.221545 -0.292101 -2.052773
    38 1.522835 0.058679 0.016852 -0.181773 -0.500376 0.243387
    39 1.117948 0.048424 -0.005766 -0.000243 -1.002274 0.065422
    40 0.131871 -0.011202 0.129111 3.250111 6.219129 -1.516804
    41 -1.180679 -2.507216 -0.193860 -0.109699 0.013294 -0.477916
    42 -0.024968 -1.123935 0.017595 -0.280540 0.000000 0.000000
    43 -0.020059 -0.890964 0.010094 -0.388002 -0.000000 -0.000000
    44 -0.488518 -2.755600 -0.228259 -0.003429 0.010331 -0.264493
    45 0.039887 -1.479790 0.029853 -0.296130 0.000000 0.000000
    46 0.028784 -1.075732 -0.023109 -0.480773 -0.000000 -0.000000
    47 0.250027 -2.820664 -0.238394 0.000102 -0.002923 -0.024029
    48 -0.049760 -1.680543 0.100480 -0.189008 0.000000 -0.000000
    49 -0.034142 -1.148310 0.084779 -0.661875 0.000000 0.000000
    50 0.957767 -2.746777 -0.090299 0.020172 -0.162276 0.191555
    51 -0.033420 -1.397126 -0.011255 -0.083237 0.000000 0.000001
    52 -0.022361 -0.957433 0.018785 -0.742252 0.000000 0.000000
    53 0.583509 -1.197273 0.185380 0.883659 -0.355101 -0.444069
    54 1.535925 0.010248 0.005008 -0.002964 -0.272229 0.000890
    55 1.100770 0.004527 -0.010675 -0.002796 -0.377916 0.003459
  time 18
    0 3.707849 1.563670 -10.607699 -1.349631 -2.660409 -0.077682
    1 -0.071920 -8.498732 -0.104134 -1.387071 -0.388944 -0.203290
    2 19.367861 -23.437864 29.099003 0.494644 -0.783939 1.585443
    3 -0.088869 0.170559 2.606216 -0.393785 1.196515 1.798619
    4 -0.011142 0.781255 -0.800262 2.352334 -0.017758 -0.007629
    5 0.000000 0.718097 -0.000002 -0.297183 -0.004087 0.000479
    6 -0.000001 0.897711 1.580295 -0.361812 -0.029879 -0.085813
    7 -0.000000 -0.000000 0.811541 -0.308623 -0.064136 0.505186
    8 2.277141 -1.503693 2.103308 -0.482214 0.223274 0.729826
    9 -2.251361 -1.503693 2.103310 2.659375 -0.223280 -0.729833
    10 0.078373 -2.285968 0.900159 -0.176167 0.008544 0.018050
    11 0.072788 -0.827522 3.275306 -1.000949 0.008544 0.018050
    12 1.775118 -0.139594 1.671897 0.513126 0.811034 3.113585
    13 -1.241366 -1.806391 1.056407 0.832025 -0.061300 2.555561
    14 1.239846 -1.806390 1.056407 0.775916 3.080293 0.586032
    15 1.218724 -1.798575 1.272704 -1.085994 0.061300 -2.555561
    16 0.004859 -0.122106 -0.000735 -0.150075 0.041702 0.036316
    17 -1.061022 -1.480885 1.175125 -0.067357 0.025976 -0.660627
    18 1.061021 -1.480883 1.175125 -1.275284 0.195897 -1.006475
    19 -0.001760 -2.443792 1.182807 0.231764 -0.000000 3.141592
    20 -1.220244 -1.798577 1.272703 1.029014 -0.271000 -3.626094
    21 -0.004860 0.122106 0.000735 0.220583 0.041702 0.036316
    22 -2.665418 -3.335987 -23.417746 -0.336708 2.931048 0.035565
    23 0.096951 -8.450422 -0.009364 -0.626412 0.144465 0.060716
    24 -0.139400 -0.111699 0.014398 0.285526 -0.040597 1.576232
    25 1.164474 -2.543937 -0.170327 -0.810662 -0.031465 0.153685
    26 0.024034 -1.129039 0.017807 -1.325026 0.000000 -0.000001
    27 0.014896 -0.883992 -0.019847 -1.279095 0.000000 -0.000000
    28 0.447949 -2.798981 -0.200442 -0.771444 0.008111 0.214640
    29 -0.032909 -1.480206 0.004935 -1.362344 0.000000 0.000000
    30 -0.027023 -1.076921 -0.020212 -1.216209 0.000000 -0.000000
    31 -0.249535 -2.846962 -0.174215 -0.842731 0.109110 0.040203
    32 0.043235 -1.683941 0.096015 -1.287122 0.000001 0.000000
    33 0.031729 -1.160831 0.058834 -1.258422 -0.000000 -0.000000
    34 -0.963867 -2.785142 -0.085346 -0.846560 0.272730 -0.030675
    35 0.028477 -1.403065 0.006271 -0.868294 0.000001 0.000000
    36 0.021414 -0.957780 0.020046 -1.214462 0.000000 0.000000
    37 -0.591283 -1.257737 0.232709 -1.221545 -0.292101 -2.052773
    38 1.522835 0.058679 0.016852 -0.181773 -0.500376 0.243387
    39 1.117948 0.048424 -0.005766 -0.000243 -1.002274 0.065422
    40 0.131871 -0.011202 0.129111 3.250111 6.219129 -1.516804
    41 -1.180679 -2.507216 -0.193860 -0.109699 0.013294 -0.477916
    42 -0.024968 -1.123935 0.017595 -0.280540 0.000000 0.000000
    43 -0.020059 -0.890964 0.010094 -0.388002 -0.000000 -0.000000
    44 -0.488518 -2.755600 -0.228259 -0.003429 0.010331 -0.264493
    45 0.039887 -1.479790 0.029853 -0.296130 0.000000 0.000000
    46 0.028784 -1.075732 -0.023109 -0.480773 -0.000000 -0.000000
    47 0.250027 -2.820664 -0.238394 0.000102 -0.002923 -0.024029
    48 -0.049760 -1.680543 0.100480 -0.189008 0.000000 -0.000000
    49 -0.034142 -1.148310 0.084779 -0.661875 0.000000 0.000000
    50 0.957767 -2.746777 -0.090299 0.020172 -0.162276 0.191555
    51 -0.033420 -1.397126 -0.011255 -0.083237 0.000000 0.000001
    52 -0.022361 -0.957433 0.018785 -0.742252 0.000000 0.000000
    53 0.583509 -1.197273 0.185380 0.883659 -0.355101 -0.444069
    54 1.535925 0.010248 0.005008 -0.002964 -0.272229 0.000890
    55 1.100770 0.004527 -0.010675 -0.002796 -0.377916 0.003459
  time 19
    0 3.602377 1.825396 -10.900677 -1.489295 -2.722570 -0.038648
    1 -0.071920 -8.498732 -0.104134 -1.316680 -0.388944 -0.203290
    2 19.715527 -27.609865 24.985596 0.515562 0.239861 1.390874
    3 -0.088869 0.170559 2.606216 -0.393785 1.196515 1.798619
    4 -0.011142 0.781255 -0.800262 2.352334 -0.017758 -0.007629
    5 0.000000 0.718097 -0.000002 -0.297183 -0.004087 0.000479
    6 -0.000001 0.897711 1.580295 -0.361812 -0.029879 -0.085813
    7 -0.000000 -0.000000 0.811541 -0.308623 -0.064136 0.505186
    8 2.277141 -1.503693 2.103308 -0.482214 0.223274 0.729826
    9 -2.251361 -1.503693 2.103310 2.659375 -0.223280 -0.729833
    10 0.078373 -2.285968 0.900159 -0.176167 0.008544 0.018050
    11 0.072788 -0.827522 3.275306 -1.000949 0.008544 0.018050
    12 1.775118 -0.139594 1.671897 0.513126 0.811034 3.113585
    13 -1.241366 -1.806391 1.056407 0.832025 -0.061300 2.555561
    14 1.239846 -1.806390 1.056407 0.775916 3.080293 0.586032
    15 1.218724 -1.798575 1.272704 -1.085994 0.061300 -2.555561
    16 0.004859 -0.122106 -0.000735 -0.150075 0.041702 0.036316
    17 -1.061022 -1.480885 1.175125 -0.067357 0.025976 -0.660627
    18 1.061021 -1.480883 1.175125 -1.275284 0.195897 -1.006475
    19 -0.001760 -2.443792 1.182807 0.231764 -0.000000 3.141592
    20 -1.220244 -1.798577 1.272703 1.029014 -0.271000 -3.626094
    21 -0.004860 0.122106 0.000735 0.220583 0.041702 0.036316
    22 -2.665418 -3.335987 -23.417746 -0.336708 2.931048 0.035565
    23 0.096951 -8.450422 -0.009364 -0.626412 0.144465 0.060716
    24 -0.139400 -0.111699 0.014398 0.285526 -0.040597 1.576232
    25 1.164474 -2.543937 -0.170327 -0.810662 -0.031465 0.153685
    26 0.024034 -1.129039 0.017807 -1.325026 0.000000 -0.000001
    27 0.014896 -0.883992 -0.019847 -1.279095 0.000000 -0.000000
    28 0.447949 -2.798981 -0.200442 -0.771444 0.008111 0.214640
    29 -0.032909 -1.480206 0.004935 -1.362344 0.000000 0.000000
    30 -0.027023 -1.076921 -0.020212 -1.216209 0.000000 -0.000000
    31 -0.249535 -2.846962 -0.174215 -0.842731 0.109110 0.040203
    32 0.043235 -1.683941 0.096015 -1.287122 0.000001 0.000000
    33 0.031729 -1.160831 0.058834 -1.258422 -0.000000 -0.000000
    34 -0.963867 -2.785142 -0.085346 -0.846560 0.272730 -0.030675
    35 0.028477 -1.403065 0.006271 -0.868294 0.000001 0.000000
    36 0.021414 -0.957780 0.020046 -1.214462 0.000000 0.000000
    37 -0.591283 -1.257737 0.232709 -1.221545 -0.292101 -2.052773
    38 1.522835 0.058679 0.016852 -0.181773 -0.500376 0.243387
    39 1.117948 0.048424 -0.005766 -0.000243 -1.002274 0.065422
    40 0.131871 -0.011202 0.129111 3.250111 6.219129 -1.516804
    41 -1.180679 -2.507216 -0.193860 -0.109699 0.013294 -0.477916
    42 -0.024968 -1.123935 0.017595 -0.280540 0.000000 0.000000
    43 -0.020059 -0.890964 0.010094 -0.388002 -0.000000 -0.000000
    44 -0.488518 -2.755600 -0.228259 -0.003429 0.010331 -0.264493
    45 0.039887 -1.479790 0.029853 -0.296130 0.000000 0.000000
    46 0.028784 -1.075732 -0.023109 -0.480773 -0.000000 -0.000000
    47 0.250027 -2.820664 -0.238394 0.000102 -0.002923 -0.024029
    48 -0.049760 -1.680543 0.100480 -0.189008 0.000000 -0.000000
    49 -0.034142 -1.148310 0.084779 -0.661875 0.000000 0.000000
    50 0.957767 -2.746777 -0.090299 0.020172 -0.162276 0.191555
    51 -0.033420 -1.397126 -0.011255 -0.083237 0.000000 0.000001
    52 -0.022361 -0.957433 0.018785 -0.742252 0.000000 0.000000
    53 0.583509 -1.197273 0.185380 0.883659 -0.355101 -0.444069
    54 1.535925 0.010248 0.005008 -0.002964 -0.272229 0.000890
    55 1.100770 0.004527 -0.010675 -0.002796 -0.377916 0.003459
  time 20
    0 3.551594 2.087123 -11.021774 -1.543828 -2.775247 -0.028820
    1 -0.071920 -8.498732 -0.104134 -1.167260 -0.388944 -0.203290
    2 19.903032 -29.133350 23.341015 0.284992 -5.214539 1.084778
    3 -0.088869 0.170559 2.606216 -0.393785 1.196515 1.798619
    4 -0.011142 0.781255 -0.800262 2.352334 -0.017758 -0.007629
    5 0.000000 0.718097 -0.000002 -0.297183 -0.004087 0.000479
    6 -0.000001 0.897711 1.580295 -0.361812 -0.029879 -0.085813
    7 -0.000000 -0.000000 0.811541 -0.308623 -0.064136 0.505186
    8 2.277141 -1.503693 2.103308 -0.482214 0.223274 0.729826
    9 -2.251361 -1.503693 2.103310 2.659375 -0.223280 -0.729833
    10 0.078373 -2.285968 0.900159 -0.176167 0.008544 0.018050
    11 0.072788 -0.827522 3.275306 -1.000949 0.008544 0.018050
    12 1.775118 -0.139594 1.671897 0.513126 0.811034 3.113585
    13 -1.241366 -1.806391 1.056407 0.832025 -0.061300 2.555561
    14 1.239846 -1.806390 1.056407 0.775916 3.080293 0.586032
    15 1.218724 -1.798575 1.272704 -1.085994 0.061300 -2.555561
    16 0.004859 -0.122106 -0.000735 -0.150075 0.041702 0.036316
    17 -1.061022 -1.480885 1.175125 -0.067357 0.025976 -0.660627
    18 1.061021 -1.480883 1.175125 -1.275284 0.195897 -1.006475
    19 -0.001760 -2.443792 1.182807 0.231764 -0.000000 3.141592
    20 -1.220244 -1.798577 1.272703 1.029014 -0.271000 -3.626094
    21 -0.004860 0.122106 0.000735 0.220583 0.041702 0.036316
    22 -2.665418 -3.335987 -23.417746 -0.336708 2.931048 0.035565
    23 0.096951 -8.450422 -0.009364 -0.626412 0.144465 0.060716
    24 -0.139400 -0.111699 0.014398 0.285526 -0.040597 1.576232
    25 1.164474 -2.543937 -0.170327 -0.810662 -0.031465 0.153685
    26 0.024034 -1.129039 0.017807 -1.325026 0.000000 -0.000001
    27 0.014896 -0.883992 -0.019847 -1.279095 0.000000 -0.000000
    28 0.447949 -2.798981 -0.200442 -0.771444 0.008111 0.214640
    29 -0.032909 -1.480206 0.004935 -1.362344 0.000000 0.000000
    30 -0.027023 -1.076921 -0.020212 -1.216209 0.000000 -0.000000
    31 -0.249535 -2.846962 -0.174215 -0.842731 0.109110 0.040203
    32 0.043235 -1.683941 0.096015 -1.287122 0.000001 0.000000
    33 0.031729 -1.160831 0.058834 -1.258422 -0.000000 -0.000000
    34 -0.963867 -2.785142 -0.085346 -0.846560 0.272730 -0.030675
    35 0.028477 -1.403065 0.006271 -0.868294 0.000001 0.000000
    36 0.021414 -0.957780 0.020046 -1.214462 0.000000 0.000000
    37 -0.591283 -1.257737 0.232709 -1.221545 -0.292101 -2.052773
    38 1.522835 0.058679 0.016852 -0.181773 -0.500376 0.243387
    39 1.117948 0.048424 -0.005766 -0.000243 -1.002274 0.065422
    40 0.131871 -0.011202 0.129111 3.250111 6.219129 -1.516804
    41 -1.180679 -2.507216 -0.193860 -0.109699 0.013294 -0.477916
    42 -0.024968 -1.123935 0.017595 -0.280540 0.000000 0.000000
    43 -0.020059 -0.890964 0.010094 -0.388002 -0.000000 -0.000000
    44 -0.488518 -2.755600 -0.228259 -0.003429 0.010331 -0.264493
    45 0.039887 -1.479790 0.029853 -0.296130 0.000000 0.000000
    46 0.028784 -1.075732 -0.023109 -0.480773 -0.000000 -0.000000
    47 0.250027 -2.820664 -0.238394 0.000102 -0.002923 -0.024029
    48 -0.049760 -1.680543 0.100480 -0.189008 0.000000 -0.000000
    49 -0.034142 -1.148310 0.084779 -0.661875 0.000000 0.000000
    50 0.957767 -2.746777 -0.090299 0.020172 -0.162276 0.191555
    51 -0.033420 -1.397126 -0.011255 -0.083237 0.000000 0.000001
    52 -0.022361 -0.957433 0.018785 -0.742252 0.000000 0.000000
    53 0.583509 -1.197273 0.185380 0.883659 -0.355101 -0.444069
    54 1.535925 0.010248 0.005008 -0.002964 -0.272229 0.000890
    55 1.100770 0.004527 -0.010675 -0.002796 -0.377916 0.003459
  time 21
    0 3.547688 2.352756 -10.974897 -1.457257 -2.812970 -0.066477
    1 -0.071920 -8.498732 -0.104134 -0.938811 -0.388944 -0.203290
    2 19.969440 -13.429746 24.462143 -1.728697 -5.107634 -0.860633
    3 -0.088869 0.170559 2.606216 -0.393785 1.196515 1.798619
    4 -0.011142 0.781255 -0.800262 2.352334 -0.017758 -0.007629
    5 0.000000 0.718097 -0.000002 -0.297183 -0.004087 0.000479
    6 -0.000001 0.897711 1.580295 -0.361812 -0.029879 -0.085813
    7 -0.000000 -0.000000 0.811541 -0.308623 -0.064136 0.505186
    8 2.277141 -1.503693 2.103308 -0.482214 0.223274 0.729826
    9 -2.251361 -1.503693 2.103310 2.659375 -0.223280 -0.729833
    10 0.078373 -2.285968 0.900159 -0.176167 0.008544 0.018050
    11 0.072788 -0.827522 3.275306 -1.000949 0.008544 0.018050
    12 1.775118 -0.139594 1.671897 0.513126 0.811034 3.113585
    13 -1.241366 -1.806391 1.056407 0.832025 -0.061300 2.555561
    14 1.239846 -1.806390 1.056407 0.775916 3.080293 0.586032
    15 1.218724 -1.798575 1.272704 -1.085994 0.061300 -2.555561
    16 0.004859 -0.122106 -0.000735 -0.150075 0.041702 0.036316
    17 -1.061022 -1.480885 1.175125 -0.067357 0.025976 -0.660627
    18 1.061021 -1.480883 1.175125 -1.275284 0.195897 -1.006475
    19 -0.001760 -2.443792 1.182807 0.231764 -0.000000 3.141592
    20 -1.220244 -1.798577 1.272703 1.029014 -0.271000 -3.626094
    21 -0.004860 0.122106 0.000735 0.220583 0.041702 0.036316
    22 -2.665418 -3.335987 -23.417746 -0.336708 2.931048 0.035565
    23 0.096951 -8.450422 -0.009364 -0.626412 0.144465 0.060716
    24 -0.139400 -0.111699 0.014398 0.285526 -0.040597 1.576232
    25 1.164474 -2.543937 -0.170327 -0.810662 -0.031465 0.153685
    26 0.024034 -1.129039 0.017807 -1.325026 0.000000 -0.000001
    27 0.014896 -0.883992 -0.019847 -1.279095 0.000000 -0.000000
    28 0.447949 -2.798981 -0.200442 -0.771444 0.008111 0.214640
    29 -0.032909 -1.480206 0.004935 -1.362344 0.000000 0.000000
    30 -0.027023 -1.076921 -0.020212 -1.216209 0.000000 -0.000000
    31 -0.249535 -2.846962 -0.174215 -0.842731 0.109110 0.040203
    32 0.043235 -1.683941 0.096015 -1.287122 0.000001 0.000000
    33 0.031729 -1.160831 0.058834 -1.258422 -0.000000 -0.000000
    34 -0.963867 -2.785142 -0.085346 -0.846560 0.272730 -0.030675
    35 0.028477 -1.403065 0.006271 -0.868294 0.000001 0.000000
    36 0.021414 -0.957780 0.020046 -1.214462 0.000000 0.000000
    37 -0.591283 -1.257737 0.232709 -1.221545 -0.292101 -2.052773
    38 1.522835 0.058679 0.016852 -0.181773 -0.500376 0.243387
    39 1.117948 0.048424 -0.005766 -0.000243 -1.002274 0.065422
    40 0.131871 -0.011202 0.129111 3.250111 6.219129 -1.516804
    41 -1.180679 -2.507216 -0.193860 -0.109699 0.013294 -0.477916
    42 -0.024968 -1.123935 0.017595 -0.280540 0.000000 0.000000
    43 -0.020059 -0.890964 0.010094 -0.388002 -0.000000 -0.000000
    44 -0.488518 -2.755600 -0.228259 -0.003429 0.010331 -0.264493
    45 0.039887 -1.479790 0.029853 -0.296130 0.000000 0.000000
    46 0.028784 -1.075732 -0.023109 -0.480773 -0.000000 -0.000000
    47 0.250027 -2.820664 -0.238394 0.000102 -0.002923 -0.024029
    48 -0.049760 -1.680543 0.100480 -0.189008 0.000000 -0.000000
    49 -0.034142 -1.148310 0.084779 -0.661875 0.000000 0.000000
    50 0.957767 -2.746777 -0.090299 0.020172 -0.162276 0.191555
    51 -0.033420 -1.397126 -0.011255 -0.083237 0.000000 0.000001
    52 -0.022361 -0.957433 0.018785 -0.742252 0.000000 0.000000
    53 0.583509 -1.197273 0.185380 0.883659 -0.355101 -0.444069
    54 1.535925 0.010248 0.005008 -0.002964 -0.272229 0.000890
    55 1.100770 0.004527 -0.010675 -0.002796 -0.377916 0.003459
  time 22
    0 3.598471 2.618389 -10.756142 -1.173914 -2.830265 -0.169618
    1 -0.071920 -8.498732 -0.104134 -0.631297 -0.388944 -0.203290
    2 20.000692 15.723488 26.548143 -2.326933 0.585691 -1.191317
    3 -0.088869 0.170559 2.606216 -0.393785 1.196515 1.798619
    4 -0.011142 0.781255 -0.800262 2.352334 -0.017758 -0.007629
    5 0.000000 0.718097 -0.000002 -0.297183 -0.004087 0.000479
    6 -0.000001 0.897711 1.580295 -0.361812 -0.029879 -0.085813
    7 -0.000000 -0.000000 0.811541 -0.308623 -0.064136 0.505186
    8 2.277141 -1.503693 2.103308 -0.482214 0.223274 0.729826
    9 -2.251361 -1.503693 2.103310 2.659375 -0.223280 -0.729833
    10 0.078373 -2.285968 0.900159 -0.176167 0.008544 0.018050
    11 0.072788 -0.827522 3.275306 -1.000949 0.008544 0.018050
    12 1.775118 -0.139594 1.671897 0.513126 0.811034 3.113585
    13 -1.241366 -1.806391 1.056407 0.832025 -0.061300 2.555561
    14 1.239846 -1.806390 1.056407 0.775916 3.080293 0.586032
    15 1.218724 -1.798575 1.272704 -1.085994 0.061300 -2.555561
    16 0.004859 -0.122106 -0.000735 -0.150075 0.041702 0.036316
    17 -1.061022 -1.480885 1.175125 -0.067357 0.025976 -0.660627
    18 1.061021 -1.480883 1.175125 -1.275284 0.195897 -1.006475
    19 -0.001760 -2.443792 1.182807 0.231764 -0.000000 3.141592
    20 -1.220244 -1.798577 1.272703 1.029014 -0.271000 -3.626094
    21 -0.004860 0.122106 0.000735 0.220583 0.041702 0.036316
    22 -2.665418 -3.335987 -23.417746 -0.336708 2.931048 0.035565
    23 0.096951 -8.450422 -0.009364 -0.626412 0.144465 0.060716
    24 -0.139400 -0.111699 0.014398 0.285526 -0.040597 1.576232
    25 1.164474 -2.543937 -0.170327 -0.810662 -0.031465 0.153685
    26 0.024034 -1.129039 0.017807 -1.325026 0.000000 -0.000001
    27 0.014896 -0.883992 -0.019847 -1.279095 0.000000 -0.000000
    28 0.447949 -2.798981 -0.200442 -0.771444 0.008111 0.214640
    29 -0.032909 -1.480206 0.004935 -1.362344 0.000000 0.000000
    30 -0.027023 -1.076921 -0.020212 -1.216209 0.000000 -0.000000
    31 -0.249535 -2.846962 -0.174215 -0.842731 0.109110 0.040203
    32 0.043235 -1.683941 0.096015 -1.287122 0.000001 0.000000
    33 0.031729 -1.160831 0.058834 -1.258422 -0.000000 -0.000000
    34 -0.963867 -2.785142 -0.085346 -0.846560 0.272730 -0.030675
    35 0.028477 -1.403065 0.006271 -0.868294 0.000001 0.000000
    36 0.021414 -0.957780 0.020046 -1.214462 0.000000 0.000000
    37 -0.591283 -1.257737 0.232709 -1.221545 -0.292101 -2.052773
    38 1.522835 0.058679 0.016852 -0.181773 -0.500376 0.243387
    39 1.117948 0.048424 -0.005766 -0.000243 -1.002274 0.065422
    40 0.131871 -0.011202 0.129111 3.250111 6.219129 -1.516804
    41 -1.180679 -2.507216 -0.193860 -0.109699 0.013294 -0.477916
    42 -0.024968 -1.123935 0.017595 -0.280540 0.000000 0.000000
    43 -0.020059 -0.890964 0.010094 -0.388002 -0.000000 -0.000000
    44 -0.488518 -2.755600 -0.228259 -0.003429 0.010331 -0.264493
    45 0.039887 -1.479790 0.029853 -0.296130 0.000000 0.000000
    46 0.028784 -1.075732 -0.023109 -0.480773 -0.000000 -0.000000
    47 0.250027 -2.820664 -0.238394 0.000102 -0.002923 -0.024029
    48 -0.049760 -1.680543 0.100480 -0.189008 0.000000 -0.000000
    49 -0.034142 -1.148310 0.084779 -0.661875 0.000000 0.000000
    50 0.957767 -2.746777 -0.090299 0.020172 -0.162276 0.191555
    51 -0.033420 -1.397126 -0.011255 -0.083237 0.000000 0.000001
    52 -0.022361 -0.957433 0.018785 -0.742252 0.000000 0.000000
    53 0.583509 -1.197273 0.185380 0.883659 -0.355101 -0.444069
    54 1.535925 0.010248 0.005008 -0.002964 -0.272229 0.000890
    55 1.100770 0.004527 -0.010675 -0.002796 -0.377916 0.003459
  time 23
    0 3.703943 2.884022 -10.365504 -0.637826 -2.821617 -0.356245
    1 -0.071920 -8.498732 -0.104134 -0.244792 -0.388944 -0.203290
    2 20.008505 31.423185 27.669271 3.760492 0.328087 -1.194750
    3 -0.088869 0.170559 2.606216 -0.393785 1.196515 1.798619
    4 -0.011142 0.781255 -0.800262 2.352334 -0.017758 -0.007629
    5 0.000000 0.718097 -0.000002 -0.297183 -0.004087 0.000479
    6 -0.000001 0.897711 1.580295 -0.361812 -0.029879 -0.085813
    7 -0.000000 -0.000000 0.811541 -0.308623 -0.064136 0.505186
    8 2.277141 -1.503693 2.103308 -0.482214 0.223274 0.729826
    9 -2.251361 -1.503693 2.103310 2.659375 -0.223280 -0.729833
    10 0.078373 -2.285968 0.900159 -0.176167 0.008544 0.018050
    11 0.072788 -0.827522 3.275306 -1.000949 0.008544 0.018050
    12 1.775118 -0.139594 1.671897 0.513126 0.811034 3.113585
    13 -1.241366 -1.806391 1.056407 0.832025 -0.061300 2.555561
    14 1.239846 -1.806390 1.056407 0.775916 3.080293 0.586032
    15 1.218724 -1.798575 1.272704 -1.085994 0.061300 -2.555561
    16 0.004859 -0.122106 -0.000735 -0.150075 0.041702 0.036316
    17 -1.061022 -1.480885 1.175125 -0.067357 0.025976 -0.660627
    18 1.061021 -1.480883 1.175125 -1.275284 0.195897 -1.006475
    19 -0.001760 -2.443792 1.182807 0.231764 -0.000000 3.141592
    20 -1.220244 -1.798577 1.272703 1.029014 -0.271000 -3.626094
    21 -0.004860 0.122106 0.000735 0.220583 0.041702 0.036316
    22 -2.665418 -3.335987 -23.417746 -0.336708 2.931048 0.035565
    23 0.096951 -8.450422 -0.009364 -0.626412 0.144465 0.060716
    24 -0.139400 -0.111699 0.014398 0.285526 -0.040597 1.576232
    25 1.164474 -2.543937 -0.170327 -0.810662 -0.031465 0.153685
    26 0.024034 -1.129039 0.017807 -1.325026 0.000000 -0.000001
    27 0.014896 -0.883992 -0.019847 -1.279095 0.000000 -0.000000
    28 0.447949 -2.798981 -0.200442 -0.771444 0.008111 0.214640
    29 -0.032909 -1.480206 0.004935 -1.362344 0.000000 0.000000
    30 -0.027023 -1.076921 -0.020212 -1.216209 0.000000 -0.000000
    31 -0.249535 -2.846962 -0.174215 -0.842731 0.109110 0.040203
    32 0.043235 -1.683941 0.096015 -1.287122 0.000001 0.000000
    33 0.031729 -1.160831 0.058834 -1.258422 -0.000000 -0.000000
    34 -0.963867 -2.785142 -0.085346 -0.846560 0.272730 -0.030675
    35 0.028477 -1.403065 0.006271 -0.868294 0.000001 0.000000
    36 0.021414 -0.957780 0.020046 -1.214462 0.000000 0.000000
    37 -0.591283 -1.257737 0.232709 -1.221545 -0.292101 -2.052773
    38 1.522835 0.058679 0.016852 -0.181773 -0.500376 0.243387
    39 1.117948 0.048424 -0.005766 -0.000243 -1.002274 0.065422
    40 0.131871 -0.011202 0.129111 3.250111 6.219129 -1.516804
    41 -1.180679 -2.507216 -0.193860 -0.109699 0.013294 -0.477916
    42 -0.024968 -1.123935 0.017595 -0.280540 0.000000 0.000000
    43 -0.020059 -0.890964 0.010094 -0.388002 -0.000000 -0.000000
    44 -0.488518 -2.755600 -0.228259 -0.003429 0.010331 -0.264493
    45 0.039887 -1.479790 0.029853 -0.296130 0.000000 0.000000
    46 0.028784 -1.075732 -0.023109 -0.480773 -0.000000 -0.000000
    47 0.250027 -2.820664 -0.238394 0.000102 -0.002923 -0.024029
    48 -0.049760 -1.680543 0.100480 -0.189008 0.000000 -0.000000
    49 -0.034142 -1.148310 0.084779 -0.661875 0.000000 0.000000
    50 0.957767 -2.746777 -0.090299 0.020172 -0.162276 0.191555
    51 -0.033420 -1.397126 -0.011255 -0.083237 0.000000 0.000001
    52 -0.022361 -0.957433 0.018785 -0.742252 0.000000 0.000000
    53 0.583509 -1.197273 0.185380 0.883659 -0.355101 -0.444069
    54 1.535925 0.010248 0.005008 -0.002964 -0.272229 0.000890
    55 1.100770 0.004527 -0.010675 -0.002796 -0.377916 0.003459
end
